<?xml version="1.0" standalone="no"?>
<!DOCTYPE svg PUBLIC "-//W3C//DTD SVG 20010904//EN"
 "http://www.w3.org/TR/2001/REC-SVG-20010904/DTD/svg10.dtd">
<svg version="1.0" xmlns="http://www.w3.org/2000/svg"
 width="640.000000pt" height="640.000000pt" viewBox="0 0 640.000000 640.000000"
 preserveAspectRatio="xMidYMid meet">
<metadata>
Created by potrace 1.14, written by Peter Selinger 2001-2017
</metadata>
<g transform="translate(0.000000,640.000000) scale(0.100000,-0.100000)"
fill="#000000" stroke="none">
<path d="M1780 6219 c9 -15 8 -24 -1 -35 -13 -15 -9 -17 15 -8 9 3 14 10 11
14 -3 5 0 12 6 16 8 4 9 3 5 -4 -4 -7 -1 -12 6 -12 10 0 10 -2 1 -8 -8 -5 -9
-13 -3 -22 13 -20 12 -33 -1 -24 -6 3 -3 -5 6 -20 16 -24 14 -31 -8 -27 -5 1
-6 -3 -2 -9 5 -8 11 -8 21 0 15 13 14 31 -1 42 -6 5 -3 8 7 8 9 0 20 -4 23
-10 3 -5 1 -10 -6 -10 -7 0 -9 -3 -6 -7 4 -3 0 -17 -8 -29 -11 -17 -12 -25 -3
-30 6 -4 8 -3 5 3 -7 11 32 48 41 39 3 -3 2 -6 -2 -6 -7 0 4 -15 38 -52 16
-18 17 -20 3 -15 -9 3 -17 2 -17 -3 0 -6 5 -10 11 -10 5 0 8 -4 4 -10 -3 -5
-12 -7 -20 -3 -23 8 -18 -5 6 -18 17 -9 20 -8 14 2 -6 8 -4 10 4 5 7 -5 10
-15 7 -23 -5 -11 -2 -13 9 -9 10 4 14 2 9 -5 -4 -7 1 -9 17 -5 13 3 18 3 11 0
-6 -3 -9 -11 -6 -16 5 -7 2 -8 -6 -3 -9 6 -11 4 -6 -4 5 -7 13 -10 20 -8 7 3
13 -4 13 -14 2 -18 0 -18 -25 -2 l-27 17 28 -27 c27 -26 43 -35 33 -19 -3 5 1
9 9 9 8 0 13 -3 10 -5 -3 -3 3 -11 13 -18 9 -7 12 -14 7 -14 -6 0 -11 -10 -12
-22 -2 -21 -1 -22 11 -5 16 21 23 22 23 2 0 -8 -4 -12 -8 -9 -4 2 -9 -1 -11
-8 -3 -9 -12 -7 -34 6 -28 19 -29 19 -12 0 15 -17 15 -20 0 -34 -14 -13 -15
-12 -9 3 4 11 3 16 -3 12 -6 -3 -10 0 -10 7 0 10 -3 9 -9 -1 -8 -13 -12 -13
-28 0 -17 13 -17 13 -4 -4 8 -10 19 -16 26 -13 6 2 12 -2 12 -10 0 -11 -9 -9
-36 7 -35 21 -36 21 -18 1 18 -20 18 -20 -2 -15 -11 3 -22 12 -24 22 -4 13 -5
13 -6 -2 0 -10 -6 -15 -11 -12 -6 4 -7 12 -4 18 5 8 3 8 -7 0 -18 -17 -34 -17
-20 0 8 10 7 14 -4 14 -8 0 -12 -4 -9 -8 2 -4 0 -10 -5 -13 -5 -4 -12 -2 -16
4 -3 5 -11 10 -18 10 -6 0 -3 -6 7 -13 16 -12 16 -13 -3 -14 -13 -1 -21 4 -22
15 0 14 -2 13 -9 -3 -6 -14 -9 -15 -10 -5 -1 10 -4 9 -10 -5 -7 -17 -9 -17 -9
-2 -1 9 -6 17 -12 17 -6 0 -8 -9 -4 -21 5 -15 4 -19 -4 -15 -6 4 -11 14 -11
22 0 8 -5 14 -11 14 -5 0 -8 -4 -5 -8 3 -5 -8 -8 -24 -8 -16 0 -27 3 -24 8 3
4 1 8 -5 8 -5 0 -12 -8 -14 -17 -4 -17 -5 -17 -6 0 0 9 -6 17 -12 17 -6 0 -8
-9 -4 -21 5 -15 4 -19 -4 -15 -6 4 -11 14 -11 22 0 8 -5 14 -11 14 -5 0 -8 -4
-5 -8 3 -5 -8 -8 -24 -8 -16 0 -27 3 -24 8 3 4 1 8 -5 8 -5 0 -12 -8 -14 -17
-4 -17 -5 -17 -6 0 0 9 -6 17 -12 17 -6 0 -8 -9 -4 -21 5 -15 4 -19 -4 -15 -6
4 -11 14 -11 22 0 8 -5 14 -11 14 -5 0 -8 -4 -5 -8 3 -5 -8 -8 -24 -8 -16 0
-27 3 -24 8 3 4 1 8 -5 8 -5 0 -12 -8 -14 -17 -4 -17 -5 -17 -6 0 0 9 -6 17
-12 17 -6 0 -8 -9 -4 -21 5 -15 4 -19 -4 -15 -6 4 -11 14 -11 22 0 8 -5 14
-11 14 -5 0 -8 -4 -5 -8 3 -5 -8 -8 -24 -8 -16 0 -27 3 -24 8 3 4 1 8 -5 8 -5
0 -12 -8 -14 -17 -4 -17 -5 -17 -6 0 0 9 -6 17 -12 17 -6 0 -8 -9 -4 -21 5
-15 4 -19 -4 -15 -6 4 -11 14 -11 22 0 8 -5 14 -11 14 -5 0 -8 -4 -5 -8 3 -5
-8 -8 -24 -8 -16 0 -27 3 -24 8 3 4 1 8 -5 8 -5 0 -12 -8 -14 -17 -4 -17 -5
-17 -6 0 0 9 -6 17 -12 17 -6 0 -8 -9 -4 -21 5 -15 4 -19 -4 -15 -6 4 -11 14
-11 22 0 8 -5 14 -11 14 -5 0 -8 -4 -5 -8 3 -5 -8 -8 -24 -8 -16 0 -27 3 -24
8 3 4 1 8 -5 8 -5 0 -12 -8 -14 -17 -4 -17 -5 -17 -6 0 0 9 -6 17 -12 17 -6 0
-8 -9 -4 -21 5 -15 4 -19 -4 -15 -6 4 -11 14 -11 22 0 8 -5 14 -11 14 -5 0 -8
-4 -5 -8 3 -5 -8 -8 -24 -8 -16 0 -27 3 -24 8 3 4 1 8 -5 8 -5 0 -12 -8 -14
-17 -4 -17 -5 -17 -6 0 0 9 -6 17 -12 17 -6 0 -8 -9 -4 -21 5 -15 4 -19 -4
-15 -6 4 -11 14 -11 22 0 8 -5 14 -11 14 -5 0 -8 -4 -5 -8 3 -5 -8 -8 -24 -8
-16 0 -27 3 -24 8 3 4 1 8 -5 8 -5 0 -12 -8 -14 -17 -4 -17 -5 -17 -6 0 0 9
-6 17 -12 17 -6 0 -8 -9 -4 -21 5 -15 4 -19 -4 -15 -6 4 -11 14 -11 22 0 8 -5
14 -11 14 -5 0 -8 -4 -5 -8 2 -4 -11 -8 -31 -9 -26 0 -32 2 -22 9 11 8 11 9
-2 5 -9 -3 -28 1 -42 8 -24 12 -25 12 -15 -5 6 -10 19 -16 27 -13 13 4 14 3 2
-5 -16 -12 -41 -5 -41 11 0 6 -3 7 -7 4 -3 -4 -12 -2 -20 5 -7 6 -16 8 -20 5
-3 -4 -13 -1 -21 6 -11 9 -10 4 3 -16 15 -24 16 -27 1 -21 -9 3 -16 11 -16 17
0 6 -3 7 -7 4 -3 -4 -12 -2 -20 5 -7 6 -16 8 -20 5 -3 -4 -13 -1 -21 6 -11 9
-10 4 3 -16 15 -24 16 -27 1 -21 -9 3 -16 11 -16 17 0 6 -3 7 -7 4 -3 -4 -12
-2 -20 5 -7 6 -16 8 -20 5 -3 -4 -13 -1 -21 6 -11 9 -10 4 3 -16 15 -24 16
-27 1 -21 -9 3 -16 11 -16 17 0 6 -3 7 -7 4 -3 -4 -12 -2 -20 5 -7 6 -16 8
-20 5 -3 -4 -13 -1 -21 6 -11 9 -10 4 3 -16 15 -24 16 -27 1 -21 -9 3 -16 11
-16 17 0 6 -3 7 -7 4 -3 -4 -12 -2 -20 5 -7 6 -16 8 -20 5 -3 -4 -13 -1 -21 6
-11 9 -10 4 3 -16 15 -24 16 -27 1 -21 -9 3 -16 11 -16 17 0 6 -3 7 -7 4 -3
-4 -12 -2 -19 4 -16 13 -44 5 -43 -13 0 -10 2 -10 6 0 7 17 28 15 44 -5 13
-15 12 -15 -8 -5 -15 9 -24 9 -28 1 -5 -7 -14 -3 -26 10 -24 26 -33 27 -20 3
9 -16 6 -18 -20 -17 -37 2 -71 -20 -50 -34 7 -5 11 -13 7 -19 -7 -11 2 -42 13
-42 4 0 8 10 8 22 2 18 0 20 -7 8 -5 -8 -10 -10 -10 -5 0 6 4 15 8 22 6 9 11
7 20 -7 7 -11 9 -20 4 -20 -12 0 -12 -39 0 -46 6 -4 8 -3 5 2 -3 6 -1 16 4 24
8 12 9 11 7 -5 -2 -15 2 -19 17 -17 11 2 18 2 15 0 -44 -33 -44 -33 -35 -19 5
10 4 12 -4 7 -6 -4 -9 -11 -6 -16 3 -4 0 -10 -7 -12 -7 -3 -5 -7 6 -11 11 -4
15 -3 10 4 -4 7 -1 10 7 7 8 -3 13 -12 11 -20 -1 -9 4 -20 11 -27 10 -8 14 -7
14 4 0 8 -4 12 -9 9 -4 -3 -8 -1 -8 5 0 5 8 9 19 8 15 -1 17 -6 11 -28 -9 -30
3 -61 13 -34 5 11 3 14 -6 9 -6 -4 -8 -3 -4 1 12 14 40 15 29 2 -5 -7 -12 -24
-14 -40 -4 -22 -3 -25 8 -16 8 6 11 15 8 20 -3 5 2 6 11 2 13 -5 14 -7 3 -14
-10 -7 -10 -9 0 -9 6 0 12 -9 12 -21 0 -13 -4 -18 -12 -13 -7 4 -8 3 -4 -5 6
-9 11 -9 22 0 7 6 11 16 7 22 -3 6 -1 7 5 3 6 -4 9 -13 5 -21 -4 -11 0 -14 13
-9 14 4 16 3 5 -4 -9 -6 -10 -12 -3 -16 11 -7 5 -37 -9 -46 -5 -3 0 -11 11
-18 15 -9 22 -9 34 3 19 19 25 19 22 -2 -2 -9 -11 -17 -20 -19 -10 -1 -21 -6
-24 -10 -4 -4 1 -4 11 -1 9 4 17 2 17 -5 0 -7 5 -6 15 2 9 7 18 10 22 6 3 -3
2 -6 -4 -6 -18 0 -23 -28 -6 -34 11 -5 14 -2 9 9 -3 9 -2 13 3 10 6 -3 9 -14
8 -25 -1 -10 -4 -17 -7 -15 -3 2 -6 -5 -6 -15 0 -14 4 -16 13 -9 9 8 12 4 10
-17 -2 -21 3 -28 22 -31 l24 -3 -23 18 -22 18 23 1 c16 2 19 -1 11 -6 -11 -7
-10 -10 3 -15 9 -3 13 -10 10 -16 -8 -13 8 -13 21 0 7 7 11 6 11 -4 0 -10 -9
-13 -31 -10 -20 2 -26 0 -17 -5 9 -6 10 -11 2 -15 -6 -4 -11 -12 -11 -19 0 -6
6 -2 14 8 12 16 16 17 30 6 9 -7 16 -10 16 -5 0 5 4 2 10 -6 6 -9 5 -19 -3
-29 -10 -11 -8 -13 9 -7 14 4 26 1 35 -11 11 -15 11 -16 -1 -5 -23 20 -35 14
-15 -8 10 -11 21 -17 26 -15 4 3 10 1 14 -4 3 -6 -3 -8 -15 -6 -26 5 -26 -12
0 -20 20 -6 20 -7 -2 -26 -13 -11 -18 -19 -13 -18 23 3 29 -2 15 -12 -13 -9
-13 -10 0 -8 8 1 22 1 30 0 13 -1 13 -2 0 -12 -12 -8 -10 -9 7 -4 19 5 22 3
16 -12 -3 -10 -3 -15 2 -11 13 12 49 -12 37 -24 -6 -6 -8 -17 -5 -24 4 -10 0
-12 -11 -8 -9 3 -16 2 -16 -3 0 -18 13 -23 28 -10 13 10 15 9 10 -3 -3 -8 -1
-24 4 -35 8 -19 8 -19 5 1 -3 12 3 25 13 31 13 9 17 8 17 -3 0 -7 -4 -11 -8
-8 -11 6 -5 -37 8 -61 6 -11 15 -16 19 -12 5 5 4 11 -1 15 -13 9 -18 42 -7 42
5 0 9 -6 10 -12 2 -12 9 -59 11 -67 1 -2 9 3 19 10 15 13 16 12 3 -4 -9 -12
-17 -14 -26 -7 -8 7 -12 6 -12 -3 0 -19 39 -19 52 0 10 14 12 13 10 -5 -1 -12
-4 -25 -8 -28 -13 -14 -7 -24 16 -25 12 0 16 -3 10 -6 -32 -12 -2 -60 34 -54
6 1 14 -2 17 -7 6 -10 -45 -9 -62 2 -7 4 -12 5 -12 2 0 -3 12 -12 28 -20 15
-8 21 -15 15 -16 -7 0 -13 -5 -13 -11 0 -5 4 -8 9 -4 5 3 12 1 16 -5 4 -7 12
-7 25 0 24 13 30 13 30 -1 0 -5 -4 -8 -9 -5 -10 7 -20 -23 -14 -41 6 -18 20
-16 20 2 0 8 -5 11 -10 8 -6 -3 -7 -1 -3 5 4 6 14 8 22 5 13 -5 13 -7 2 -14
-10 -7 -10 -9 1 -9 11 0 9 -4 -5 -15 -10 -8 -14 -15 -9 -15 6 0 19 -7 29 -15
16 -13 17 -17 5 -31 -13 -16 -12 -16 9 -3 l23 14 -28 23 c-19 16 -21 20 -7 13
12 -6 25 -7 29 -3 5 4 5 2 1 -5 -3 -6 4 -19 16 -29 14 -10 16 -14 6 -11 -9 3
-21 0 -27 -7 -8 -9 -3 -12 19 -10 17 1 33 -2 36 -7 3 -5 0 -8 -7 -7 -7 2 -13
-2 -14 -9 0 -6 -4 -15 -9 -20 -5 -5 -6 -3 -2 5 4 6 2 12 -3 12 -6 0 -11 -5
-11 -11 0 -5 -5 -7 -12 -3 -6 4 -8 3 -4 -4 3 -6 18 -8 33 -6 21 4 24 2 15 -8
-8 -11 -6 -17 9 -26 12 -8 17 -18 12 -25 -4 -7 5 -4 19 5 25 16 26 16 24 0 -2
-9 -8 -17 -14 -17 -6 0 -14 -4 -19 -9 -4 -5 -3 -6 4 -3 6 4 18 1 26 -7 8 -8
18 -12 21 -8 4 3 4 -1 1 -11 -5 -12 1 -20 19 -29 19 -8 25 -16 20 -27 -15 -37
-12 -57 10 -58 11 -1 16 1 9 4 -7 2 -9 12 -6 21 4 15 3 15 -6 2 -6 -8 -11 -10
-11 -4 0 16 10 23 25 18 7 -3 11 -17 9 -35 -2 -17 0 -27 6 -24 5 3 7 -3 5 -14
-2 -10 3 -27 10 -38 13 -17 14 -17 12 4 0 12 -6 19 -12 15 -5 -3 -4 2 4 11 7
9 17 14 23 11 5 -3 4 -13 -4 -22 -11 -14 -10 -15 6 -9 15 6 17 5 7 -7 -14 -16
-23 -56 -13 -55 19 3 32 -2 32 -12 0 -5 -4 -8 -9 -5 -5 3 -12 -1 -15 -9 -5
-13 -2 -14 16 -4 18 10 20 9 15 -5 -4 -10 -3 -15 3 -11 10 6 14 -7 11 -35 -2
-13 -1 -13 8 0 5 8 7 19 3 25 -3 5 1 4 10 -2 8 -7 18 -9 22 -5 4 4 6 0 4 -8
-1 -8 3 -14 10 -12 16 3 16 -15 0 -20 -10 -4 -9 -9 2 -21 33 -36 40 -47 32
-47 -6 0 -17 11 -26 25 -17 25 -36 33 -36 15 0 -6 5 -9 11 -8 6 2 14 -3 16 -9
3 -7 0 -13 -6 -13 -6 0 -11 -5 -11 -12 0 -9 3 -9 11 -1 9 9 16 9 31 0 15 -10
21 -9 29 3 9 13 10 13 6 -2 -3 -9 1 -22 8 -28 16 -13 10 -34 -6 -24 -5 3 -7 9
-4 14 3 5 2 11 -3 14 -4 2 -8 -4 -9 -14 -2 -20 22 -34 39 -23 7 4 8 1 3 -7 -5
-9 -2 -10 13 -6 12 4 23 2 28 -5 4 -8 3 -9 -4 -5 -6 4 -21 2 -33 -5 -15 -8
-19 -8 -15 0 4 6 3 11 -2 11 -6 0 -12 -6 -15 -14 -4 -10 2 -13 23 -12 19 1 26
-2 23 -11 -3 -7 0 -20 7 -28 7 -8 10 -21 7 -28 -3 -7 2 -13 13 -13 15 0 15 3
-3 36 -11 19 -15 30 -7 23 7 -6 18 -10 24 -9 6 2 8 1 4 -1 -14 -8 -8 -30 12
-48 19 -17 18 -41 -1 -29 -5 3 -6 10 -3 16 4 7 2 8 -4 4 -7 -4 -12 -11 -12
-16 0 -11 39 -25 60 -22 13 3 13 2 0 -7 -8 -5 -18 -7 -24 -4 -5 3 -6 1 -2 -6
4 -6 12 -9 17 -6 16 11 10 -7 -8 -22 -12 -10 -9 -10 10 1 28 17 36 10 14 -13
-10 -11 -9 -14 1 -18 9 -4 10 -8 2 -18 -8 -10 -7 -13 4 -11 26 4 30 16 10 31
-16 12 -16 14 -3 15 9 0 21 -12 27 -26 7 -14 8 -23 2 -19 -5 3 -10 2 -10 -3 0
-17 13 -22 29 -9 14 11 14 10 2 -5 -12 -17 -9 -23 12 -19 5 1 6 -3 2 -9 -3 -5
-1 -10 4 -10 6 0 11 -5 11 -12 0 -6 -10 -2 -23 9 -12 11 -33 26 -47 32 l-25
12 25 -20 c22 -18 21 -26 -3 -22 -5 1 -5 -4 -2 -10 5 -8 10 -8 18 0 15 15 30
14 21 -1 -4 -7 -4 -10 1 -6 15 14 35 -12 25 -32 -8 -14 -5 -16 15 -12 14 2 25
9 25 15 0 6 3 8 6 5 3 -3 -1 -16 -8 -27 -11 -18 -11 -23 2 -31 8 -5 15 -15 15
-22 1 -18 38 -78 49 -78 5 0 3 7 -4 14 -9 11 -9 19 0 33 10 16 10 16 5 -3 -4
-16 1 -28 20 -42 20 -16 22 -21 9 -26 -8 -3 -12 -2 -9 3 3 5 2 12 -3 14 -4 3
-13 -6 -19 -20 -10 -20 -9 -22 1 -14 10 8 17 6 30 -7 9 -10 13 -23 9 -27 -5
-5 6 -1 22 9 17 11 27 15 23 11 -4 -5 -3 -14 3 -21 8 -10 6 -12 -10 -9 -11 2
-24 -1 -27 -7 -4 -6 -3 -8 2 -5 6 3 16 2 24 -3 12 -8 13 -13 3 -29 -10 -16 -9
-18 7 -14 11 3 18 9 15 12 -2 4 2 8 10 8 8 0 13 -2 10 -5 -2 -3 0 -13 5 -23 7
-12 6 -20 -2 -25 -6 -4 -8 -3 -5 3 7 11 -22 28 -31 18 -3 -3 0 -5 7 -5 7 0 11
-6 8 -14 -4 -11 0 -13 15 -11 11 3 30 -2 42 -10 11 -8 15 -15 8 -15 -7 0 -10
-4 -7 -10 3 -6 -1 -7 -9 -4 -9 3 -16 2 -16 -3 0 -9 14 -13 55 -14 15 0 17 -2
6 -8 -8 -5 -26 -7 -40 -5 -19 3 -22 2 -11 -5 8 -5 18 -7 24 -4 6 4 7 -1 2 -13
-4 -10 -4 -15 0 -11 4 4 14 -2 21 -13 8 -11 22 -19 30 -18 9 2 18 -3 20 -9 3
-7 0 -13 -7 -13 -6 0 -8 5 -4 12 4 7 3 8 -4 4 -6 -4 -9 -13 -6 -21 4 -8 11
-12 17 -8 6 4 8 0 4 -10 -4 -10 -2 -17 5 -17 12 0 37 -30 37 -45 1 -5 -8 1
-19 15 -16 21 -21 23 -32 12 -11 -11 -9 -12 7 -6 11 4 17 4 13 -1 -4 -4 0 -14
10 -21 14 -11 20 -10 35 9 16 21 16 20 1 -18 -9 -22 -13 -37 -9 -33 4 4 14 0
22 -8 8 -8 19 -11 25 -8 6 4 8 2 5 -4 -8 -12 -25 -11 -47 3 -11 6 -10 2 3 -12
9 -11 14 -24 10 -28 -5 -5 -1 -4 8 3 10 7 26 15 38 17 18 3 20 1 11 -16 -13
-22 -22 -26 -14 -4 9 22 -4 18 -16 -5 -6 -11 -7 -19 -3 -18 4 2 8 -1 8 -7 0
-5 -4 -9 -8 -7 -5 1 -6 -2 -2 -8 5 -8 11 -7 21 1 10 8 14 8 14 0 0 -6 5 -11
12 -11 6 0 3 9 -7 20 -10 11 -13 20 -8 20 12 0 27 -29 24 -44 -1 -5 5 -6 13
-3 9 4 15 1 13 -6 -1 -7 6 -11 16 -9 9 2 17 -3 17 -9 0 -7 -3 -9 -7 -6 -3 4
-13 1 -21 -6 -13 -10 -14 -9 -7 2 5 10 4 12 -4 7 -9 -6 -9 -11 1 -24 11 -13
11 -15 -3 -10 -9 4 -16 1 -16 -7 0 -8 7 -11 15 -7 11 4 13 2 7 -9 -7 -11 -5
-11 11 1 10 8 23 20 27 25 5 6 6 2 3 -8 -3 -10 -6 -23 -6 -28 0 -6 -4 -8 -9
-4 -5 3 -13 0 -17 -6 -4 -8 -3 -9 5 -5 6 4 14 1 17 -8 5 -12 9 -13 19 -3 9 9
10 14 1 20 -7 6 -6 7 3 5 8 -2 15 -12 17 -21 1 -9 -1 -15 -6 -12 -10 6 -21
-20 -13 -29 4 -3 11 -6 17 -6 6 0 4 5 -4 10 -9 6 -10 10 -3 10 6 0 18 -7 26
-15 8 -8 17 -12 19 -10 2 2 4 -7 4 -20 0 -19 -3 -22 -13 -13 -7 5 -11 14 -8
18 3 5 1 11 -5 15 -6 4 -9 -4 -8 -19 1 -13 5 -23 9 -20 12 7 31 -25 23 -38 -4
-7 -4 -10 1 -6 10 10 37 -11 29 -23 -9 -15 8 -10 29 8 20 18 20 18 2 -11 l-19
-29 23 8 c21 6 22 5 10 -7 -7 -8 -20 -14 -29 -13 -8 1 -9 0 -2 -2 7 -3 9 -9 6
-15 -4 -5 5 -3 19 7 25 16 25 16 23 -9 -4 -29 3 -32 24 -14 12 11 12 10 1 -4
-7 -10 -10 -18 -5 -18 5 0 1 -7 -10 -15 -18 -13 -18 -14 2 -12 11 0 19 4 17 7
-2 3 1 12 7 20 8 13 9 12 5 -2 -3 -9 -3 -19 1 -23 4 -4 7 -10 7 -14 0 -4 8
-15 18 -25 11 -11 17 -13 17 -5 0 7 3 10 6 6 3 -3 3 -11 -1 -17 -5 -8 -12 -7
-24 4 -10 9 -20 13 -24 10 -4 -4 -5 3 -2 14 3 15 0 19 -12 15 -12 -5 -12 -7
-1 -14 11 -7 10 -9 -1 -9 -19 0 -7 -11 16 -14 12 -2 18 -11 17 -25 -1 -12 1
-19 4 -16 11 10 32 -17 23 -29 -7 -8 -3 -12 12 -13 17 -2 19 0 7 7 -13 9 -13
10 0 10 13 0 13 1 0 10 -12 8 -10 9 7 7 12 -2 26 -7 30 -11 5 -4 2 -6 -6 -4
-7 2 -15 -5 -16 -14 -2 -10 1 -18 7 -18 6 0 6 -6 -2 -14 -9 -12 -8 -15 9 -13
12 1 21 5 21 9 0 4 5 8 12 8 6 0 8 -3 5 -7 -4 -3 3 -18 15 -32 13 -14 15 -19
6 -12 -13 10 -18 10 -18 2 0 -7 -5 -9 -11 -5 -8 5 -8 9 1 14 9 5 9 9 1 14 -6
4 -11 1 -11 -6 0 -11 -2 -11 -9 0 -6 10 -10 10 -21 -3 -11 -13 -10 -14 5 -9
14 6 16 4 10 -7 -4 -8 -5 -11 0 -7 4 4 14 3 22 -3 7 -6 13 -8 13 -4 0 4 6 2
14 -4 19 -16 9 -51 -12 -44 -10 3 -7 -2 6 -11 12 -10 20 -22 17 -27 -4 -5 -1
-9 4 -9 6 0 11 4 11 8 0 5 15 9 33 9 17 0 24 -2 15 -4 -15 -4 -16 -8 -7 -26 9
-19 8 -19 -11 3 -12 14 -19 19 -15 13 3 -7 0 -13 -7 -13 -7 0 3 -8 22 -17 46
-22 46 -21 32 -35 -9 -9 -8 -17 6 -32 16 -20 16 -20 -2 -6 -18 13 -19 13 -14
0 3 -9 0 -24 -8 -34 -7 -11 -11 -24 -7 -30 3 -6 3 -8 -2 -4 -4 4 -17 3 -29 -3
-18 -9 -18 -8 3 9 23 18 23 19 4 24 -12 3 -20 1 -19 -6 0 -6 -3 -13 -9 -15
-44 -16 -64 -60 -42 -91 9 -12 9 -13 -3 -2 -12 10 -17 8 -28 -10 l-13 -23 6
22 c5 18 3 22 -9 17 -9 -3 -14 -10 -11 -14 3 -5 -9 -16 -26 -24 -32 -16 -32
-16 -14 4 10 11 22 17 26 14 5 -3 6 3 2 12 -4 10 -8 13 -10 7 -3 -7 -10 -11
-16 -9 -7 1 -8 1 -4 -2 14 -7 -14 -31 -31 -25 -10 3 -13 2 -7 -4 14 -11 17
-53 4 -53 -6 0 -8 4 -5 8 2 4 0 14 -5 22 -7 11 -8 7 -5 -13 3 -19 -1 -30 -13
-37 -10 -5 -21 -6 -25 -3 -3 3 -6 1 -6 -5 0 -7 -5 -12 -11 -12 -8 0 -8 5 1 15
7 8 17 12 23 8 6 -4 7 -1 2 7 -6 10 -4 12 8 7 11 -4 14 -2 10 9 -7 18 -19 18
-27 -2 -3 -8 -11 -12 -17 -8 -8 5 -9 3 -4 -6 6 -10 4 -12 -10 -7 -16 7 -16 6
-2 -17 15 -22 15 -25 0 -38 -12 -9 -15 -9 -9 0 4 6 3 12 -3 12 -6 0 -9 6 -7
13 1 6 1 9 -1 4 -3 -4 -10 -4 -15 -1 -7 5 -8 2 -2 -7 12 -21 15 -49 5 -49 -6
0 -13 5 -17 12 -5 7 -3 8 5 3 10 -6 11 -3 2 14 -13 24 -23 28 -15 6 5 -11 1
-14 -12 -9 -11 3 -15 2 -9 -3 17 -14 40 -47 28 -40 -6 4 -14 3 -18 -3 -4 -6
-11 -8 -16 -4 -14 8 0 26 14 18 7 -4 8 -3 4 1 -10 12 -39 16 -32 5 3 -5 -8
-16 -25 -25 -18 -9 -28 -20 -24 -27 5 -8 1 -9 -10 -5 -9 4 -14 3 -11 -2 3 -5
1 -12 -5 -16 -5 -3 -10 -1 -10 6 0 7 -3 10 -6 6 -3 -3 -3 -10 1 -16 4 -7 14
-5 30 5 14 9 22 20 19 25 -6 11 7 11 23 1 8 -5 2 -12 -17 -20 -20 -9 -27 -18
-24 -30 4 -10 3 -13 -3 -6 -4 5 -21 10 -38 10 -27 -1 -30 -4 -29 -33 0 -18 -3
-33 -7 -33 -11 0 -19 28 -13 47 2 10 -1 8 -7 -5 -7 -13 -18 -21 -25 -18 -8 3
-11 0 -7 -10 4 -12 8 -12 22 -2 9 7 13 8 9 4 -4 -5 -4 -14 2 -20 5 -7 5 -17
-1 -26 -8 -12 -9 -12 -7 4 2 14 -4 19 -32 21 -19 2 -29 1 -22 -2 6 -2 10 -9 7
-14 -4 -5 2 -6 12 -2 14 4 15 3 7 -6 -6 -7 -25 -13 -43 -13 -17 -1 -31 -5 -31
-10 0 -5 4 -6 10 -3 15 9 12 -11 -4 -24 -11 -9 -16 -9 -22 0 -4 8 -3 9 4 5 8
-5 10 -1 5 9 -4 13 -8 14 -14 4 -4 -7 -6 -16 -3 -20 2 -4 0 -10 -6 -14 -5 -3
-10 -1 -10 6 0 7 -3 9 -6 6 -4 -4 -1 -13 6 -22 7 -8 9 -15 4 -15 -5 0 -3 -4 5
-9 9 -6 5 -9 -15 -9 -25 0 -26 2 -11 13 16 11 16 13 2 19 -9 3 -14 2 -11 -3 3
-5 -2 -15 -11 -22 -14 -12 -15 -11 -9 11 l7 25 -14 -23 c-7 -12 -17 -19 -21
-15 -4 4 -6 1 -4 -7 2 -8 -2 -14 -9 -13 -8 2 -10 -4 -6 -14 4 -10 2 -14 -5 -9
-6 3 -13 2 -17 -4 -4 -6 -11 -8 -16 -4 -6 3 -5 -3 2 -14 7 -12 17 -18 21 -16
15 9 8 -3 -9 -17 -9 -8 -14 -9 -10 -3 4 7 0 17 -8 24 -13 11 -14 10 -8 -6 6
-17 5 -17 -10 -5 -10 8 -20 11 -24 7 -3 -3 -1 -6 5 -6 7 0 12 -4 12 -9 0 -10
-26 -9 -36 2 -4 4 -12 7 -18 7 -6 0 -5 -4 3 -9 12 -7 11 -12 -1 -30 -8 -11
-17 -19 -19 -17 -2 2 -13 -8 -24 -22 -10 -15 -13 -22 -5 -16 12 9 18 9 27 -2
11 -11 7 -12 -24 -8 -30 3 -35 2 -25 -8 6 -6 12 -16 12 -21 0 -5 -7 -1 -16 7
-8 9 -23 16 -32 15 -14 0 -15 -2 -2 -7 17 -8 26 -42 10 -42 -5 0 -9 5 -7 11 1
6 -5 14 -13 16 -13 4 -13 3 0 -6 8 -6 13 -11 10 -12 -3 0 -14 -2 -25 -4 -11
-2 -25 -11 -31 -19 -6 -9 -14 -13 -17 -9 -4 3 -7 1 -7 -6 0 -7 -5 -9 -12 -5
-7 4 -8 3 -4 -4 4 -6 14 -8 23 -5 10 4 14 2 11 -7 -5 -16 -48 -21 -48 -6 0 6
-4 4 -9 -4 -13 -20 -3 -32 20 -25 10 4 19 2 19 -3 0 -11 -40 -9 -59 2 -6 4 -9
11 -7 15 3 4 -1 8 -9 8 -12 0 -12 -4 2 -20 16 -18 16 -20 1 -14 -16 6 -43 -15
-32 -25 2 -3 -2 -8 -10 -11 -9 -4 -18 -2 -21 3 -8 13 -25 13 -25 0 0 -5 5 -9
11 -7 6 1 13 -8 15 -20 2 -13 -1 -23 -7 -23 -5 0 -8 -4 -5 -8 3 -5 -1 -9 -9
-9 -8 0 -12 4 -10 8 3 4 -1 9 -8 12 -16 6 -47 -16 -47 -34 0 -11 -2 -11 -10 1
-6 9 -10 10 -10 3 0 -19 20 -26 26 -9 3 9 11 13 17 9 5 -3 7 -1 3 5 -3 6 -3
13 2 16 4 2 8 -6 8 -18 0 -15 -6 -23 -15 -22 -9 1 -16 -5 -16 -13 0 -8 -7 -16
-15 -18 -11 -3 -12 -2 -3 4 9 6 7 12 -7 21 -14 8 -21 9 -26 0 -4 -7 -3 -8 4
-4 7 4 12 1 12 -8 0 -9 -5 -16 -11 -16 -5 0 -8 -4 -4 -10 3 -5 -6 -17 -20 -26
-13 -9 -23 -19 -21 -23 3 -4 0 -13 -6 -21 -8 -13 -9 -12 -5 1 3 9 0 22 -6 29
-9 10 -9 11 2 5 9 -5 12 -4 8 2 -4 6 1 17 10 24 14 12 16 12 9 0 -6 -9 -5 -12
4 -9 17 5 22 36 8 45 -6 3 -8 1 -5 -4 8 -12 -20 -26 -34 -18 -5 4 -6 -2 -2
-11 4 -11 3 -15 -5 -10 -7 4 -10 -1 -7 -15 3 -12 1 -28 -4 -37 -7 -12 -9 -12
-14 2 -5 11 -3 15 5 10 7 -4 8 -3 4 5 -11 17 -28 2 -21 -20 5 -14 2 -17 -9
-13 -8 3 -12 12 -10 19 3 7 1 16 -5 20 -7 4 -8 -1 -4 -12 6 -16 5 -17 -13 -3
-18 14 -18 14 -5 -2 11 -15 11 -21 1 -33 -10 -12 -16 -13 -29 -3 -14 12 -14
11 -3 -4 8 -9 11 -23 7 -30 -4 -7 3 -2 14 12 11 14 21 20 21 13 0 -6 -5 -15
-10 -18 -6 -4 -7 -11 -4 -17 4 -7 2 -8 -4 -4 -7 4 -12 2 -12 -5 0 -17 -11 -5
-14 15 -1 9 -5 16 -9 16 -4 0 -9 0 -12 0 -2 0 0 -11 5 -25 7 -19 6 -23 -6 -18
-9 3 -14 0 -12 -8 2 -8 -2 -13 -9 -12 -11 3 -37 -31 -38 -49 0 -3 -4 -10 -8
-15 -5 -4 -7 -3 -5 2 2 6 -1 11 -7 12 -5 1 -9 -6 -7 -15 2 -10 0 -13 -5 -7 -4
6 -20 11 -35 11 -23 1 -26 -1 -18 -17 11 -20 -4 -37 -16 -18 -5 8 -3 9 7 4 8
-5 10 -4 6 0 -10 12 -38 15 -31 4 3 -5 0 -9 -5 -9 -6 0 -11 -5 -11 -11 0 -8 5
-8 15 1 8 7 15 9 16 4 0 -5 2 -17 4 -27 2 -9 -1 -15 -6 -11 -5 3 -6 10 -3 16
5 8 1 9 -11 4 -11 -4 -22 -2 -27 6 -6 10 -8 9 -8 -4 0 -9 6 -19 13 -22 6 -2
-6 -3 -28 0 l-40 4 30 -13 c25 -11 27 -14 12 -20 -10 -4 -16 -11 -12 -16 3 -5
1 -12 -4 -15 -5 -4 -12 -2 -15 3 -4 5 -2 12 4 16 13 8 3 25 -13 25 -7 0 -6 -4
3 -10 8 -5 12 -10 8 -11 -5 -1 -12 -3 -18 -4 -5 -1 -14 -3 -20 -4 -5 0 -7 -8
-4 -16 4 -10 2 -13 -8 -10 -7 3 -24 -4 -36 -15 -12 -11 -24 -20 -27 -19 -3 0
-11 -2 -18 -5 -6 -2 -2 -4 10 -2 12 1 31 10 42 20 19 17 19 17 17 -1 -2 -10
-8 -18 -14 -18 -6 0 -14 -3 -18 -7 -4 -5 -2 -8 4 -8 7 0 12 -5 12 -10 0 -6 -8
-5 -20 2 -17 11 -22 10 -29 -1 -5 -8 -7 -21 -4 -30 4 -14 3 -14 -7 -1 -9 11
-13 12 -17 3 -3 -9 -10 -10 -22 -4 -9 5 -23 6 -30 2 -10 -6 -9 -10 3 -14 9 -4
13 -12 10 -20 -3 -8 2 -14 10 -14 12 0 13 4 4 21 -10 18 -9 19 4 9 8 -7 18
-10 22 -6 4 4 4 0 0 -10 -6 -17 57 -17 1186 -17 987 1 1190 3 1181 14 -13 16
8 39 30 33 8 -2 11 -2 6 0 -4 3 -5 9 -2 13 3 5 0 12 -7 16 -7 4 -10 4 -6 -1 4
-4 -4 -16 -17 -27 -14 -11 -22 -24 -19 -30 4 -7 2 -8 -5 -4 -6 4 -9 11 -6 16
3 4 2 10 -2 13 -5 2 -3 2 4 1 14 -3 37 22 30 33 -3 5 8 9 24 9 18 1 27 -2 23
-10 -3 -6 1 -3 9 6 8 10 16 15 20 12 3 -3 8 4 12 15 3 11 24 30 46 43 23 13
35 25 28 29 -15 9 4 45 31 59 16 8 20 8 20 -4 0 -9 -6 -13 -13 -11 -6 3 -17
-3 -24 -14 -10 -15 -9 -20 2 -25 8 -3 17 0 21 6 5 7 2 8 -6 3 -8 -5 -11 -3 -8
6 3 8 11 13 18 11 6 -1 14 6 17 17 3 13 11 18 21 14 13 -4 14 -3 3 5 -9 7 -10
11 -2 17 7 3 9 15 6 26 -4 11 -2 19 5 19 6 0 8 5 5 10 -10 16 1 11 16 -7 12
-14 12 -16 0 -8 -10 6 -12 4 -6 -5 6 -9 4 -11 -5 -5 -9 5 -11 4 -6 -3 5 -9 12
-8 26 0 12 8 15 15 9 19 -8 4 -8 9 -1 13 6 3 9 14 7 24 -1 9 0 11 2 5 5 -15
23 -18 23 -4 0 5 10 7 23 4 13 -3 18 -1 12 4 -17 13 -16 53 1 53 8 0 14 -5 14
-11 0 -5 -4 -8 -8 -5 -5 3 -9 -1 -9 -9 0 -8 4 -15 9 -15 4 0 8 5 8 11 0 8 5 8
15 -1 9 -8 15 -8 15 -2 0 6 -5 12 -12 14 -8 3 -7 11 4 27 9 13 14 31 11 40 -4
9 -3 13 1 9 4 -3 9 -13 10 -22 1 -9 5 -16 9 -16 4 0 9 0 12 0 3 0 1 8 -4 18
-6 12 -6 23 0 33 8 11 9 10 7 -6 -2 -14 3 -20 19 -21 12 -1 20 3 17 8 -3 4
-11 6 -17 2 -7 -3 -4 1 6 9 18 15 18 15 0 20 -15 4 -16 5 -1 6 9 0 20 -4 23
-9 5 -8 11 -7 21 1 11 9 17 9 28 0 11 -10 17 -8 25 6 6 10 10 14 11 8 0 -5 -5
-17 -10 -25 -7 -12 -12 -12 -22 -2 -14 14 -32 16 -23 3 3 -6 -3 -8 -14 -6 -14
3 -18 -1 -14 -12 3 -8 9 -11 12 -6 3 5 26 9 50 9 31 -1 46 4 48 14 4 13 3 13
-6 0 -7 -9 -11 -10 -11 -3 0 17 14 23 29 13 8 -4 10 -13 6 -21 -6 -11 -5 -11
5 -2 9 9 19 9 34 2 17 -8 16 -6 -4 11 -22 19 -22 20 -3 11 28 -14 36 -14 27 0
-5 8 -1 8 13 0 15 -7 23 -7 32 2 10 9 11 8 5 -6 -4 -12 -13 -16 -28 -12 -16 4
-17 4 -6 -3 21 -14 63 -8 68 9 3 11 1 11 -7 -1 -7 -9 -11 -10 -11 -3 0 17 14
23 29 13 8 -4 10 -13 6 -21 -6 -11 -5 -11 5 -2 9 9 19 9 33 2 14 -8 18 -8 13
0 -4 6 -2 11 4 11 6 0 8 5 4 11 -5 8 -1 8 13 0 15 -7 23 -7 32 2 10 9 11 8 5
-6 -4 -12 -13 -16 -28 -12 -16 4 -17 4 -6 -3 21 -14 63 -8 68 9 3 11 1 11 -7
-1 -7 -9 -11 -10 -11 -3 0 17 14 23 29 13 8 -4 10 -13 6 -21 -6 -11 -5 -11 5
-2 9 8 19 9 32 2 14 -7 18 -7 16 3 -2 8 8 13 27 13 19 0 29 5 27 14 -1 7 2 10
8 6 7 -4 7 -12 0 -26 -7 -13 -7 -19 0 -19 5 0 10 4 10 9 0 5 11 8 25 5 14 -2
25 0 25 6 0 6 11 8 25 6 14 -3 25 0 25 5 0 5 5 9 10 9 7 0 7 -6 0 -20 -7 -14
-7 -20 0 -20 5 0 10 4 10 9 0 5 11 8 25 5 14 -2 25 0 25 5 0 6 12 9 28 8 18
-1 26 2 24 11 -1 8 2 11 8 7 7 -4 7 -12 0 -26 -7 -13 -7 -19 0 -19 5 0 10 4
10 9 0 5 11 8 25 5 14 -2 25 0 25 6 0 6 11 8 25 6 14 -3 25 0 25 5 0 5 5 9 10
9 7 0 7 -6 0 -20 -7 -14 -7 -20 0 -20 5 0 10 4 10 9 0 5 11 8 25 5 14 -2 25 0
25 6 0 6 11 8 25 6 14 -3 25 0 25 5 0 5 5 9 10 9 7 0 7 -6 0 -20 -7 -14 -7
-20 0 -20 5 0 10 4 10 9 0 5 11 8 25 5 15 -2 25 0 25 7 0 6 6 9 14 6 7 -3 19
0 26 6 7 7 10 7 7 2 -3 -6 1 -18 8 -28 11 -16 13 -16 19 -2 3 9 11 13 17 9 8
-4 9 -3 5 5 -6 9 -11 9 -22 0 -9 -7 -14 -8 -14 -1 0 15 22 21 43 10 10 -5 17
-5 17 1 0 5 -6 12 -12 14 -8 4 -7 6 4 6 9 1 19 7 22 14 3 6 3 1 0 -12 -4 -17
-3 -21 6 -16 6 4 10 18 7 31 -2 13 -1 23 2 22 19 -2 31 3 27 11 -3 5 1 11 9
15 8 3 17 0 21 -6 4 -6 3 -8 -3 -5 -6 4 -14 -1 -17 -10 -8 -20 9 -40 19 -22 5
8 4 10 -3 5 -7 -4 -12 -3 -12 2 0 6 7 13 16 16 8 3 12 11 9 16 -4 6 -1 17 5
25 6 8 9 19 5 25 -4 6 3 6 19 -1 14 -7 23 -15 21 -19 -2 -4 3 -7 11 -7 10 0 8
7 -8 25 -21 22 -21 24 -3 15 22 -12 48 -6 39 8 -7 13 10 11 23 -2 8 -8 13 -7
18 2 5 8 4 10 -3 5 -12 -7 -49 41 -38 51 3 3 6 1 6 -4 0 -6 8 -10 18 -8 9 1
23 -2 30 -8 8 -6 12 -6 12 2 0 6 -4 11 -9 11 -5 0 -8 11 -8 24 0 19 2 22 12
13 7 -7 10 -16 7 -22 -3 -5 6 0 20 13 13 12 28 19 33 15 4 -5 5 -2 1 5 -4 6
-2 13 3 13 6 1 15 2 20 3 5 0 13 5 18 9 4 5 3 7 -2 5 -6 -2 -11 1 -13 6 -2 9
16 16 50 19 9 1 14 5 12 9 -7 11 -37 6 -46 -7 -5 -6 -8 -4 -8 4 0 11 -4 9 -14
-4 -8 -11 -12 -24 -9 -29 4 -5 1 -6 -4 -3 -6 4 -14 0 -17 -9 -4 -9 -9 -14 -13
-11 -3 4 -12 2 -20 -4 -9 -9 -13 -8 -13 0 0 6 6 11 13 11 8 0 7 4 -3 10 -8 5
-10 10 -4 10 5 0 15 -5 22 -12 8 -8 12 -9 12 -1 0 6 7 19 16 28 15 15 15 17
-2 31 -18 14 -18 14 4 4 17 -8 22 -8 22 2 0 9 3 9 10 -2 9 -13 14 -7 11 12 0
5 2 7 7 6 4 -1 17 3 28 10 12 6 25 8 30 4 5 -4 0 4 -11 18 -11 14 -16 22 -11
18 5 -4 16 -2 24 5 13 9 14 9 8 -1 -4 -6 -3 -12 3 -12 5 0 8 -9 6 -20 -2 -11
0 -18 5 -15 8 5 8 13 -4 73 -3 13 -1 20 5 17 5 -4 7 -10 4 -15 -3 -4 4 -19 15
-31 16 -19 19 -20 13 -5 -4 13 -3 17 5 12 7 -4 12 -2 12 4 0 7 -7 10 -15 6
-18 -6 -18 -7 -4 33 12 35 21 38 42 16 13 -13 16 -13 21 1 3 8 10 12 16 9 6
-4 8 -11 5 -16 -10 -15 2 -10 16 8 8 10 9 14 2 10 -6 -4 -15 -3 -18 3 -4 7
-11 8 -18 1 -8 -6 -19 -5 -31 5 -11 8 -15 14 -9 14 7 0 15 -5 18 -10 5 -8 11
-7 20 0 8 7 19 9 24 5 7 -4 8 1 4 11 -4 12 -3 15 5 10 7 -4 15 0 18 9 4 9 12
14 19 11 9 -3 12 5 11 24 -1 16 0 27 3 25 2 -3 11 1 19 8 13 10 14 9 7 -3 -12
-19 -15 -61 -4 -54 4 2 6 13 4 24 -4 22 15 40 44 43 11 0 17 5 15 9 -3 5 8 21
24 36 24 22 26 28 11 28 -9 0 -15 -5 -12 -11 4 -5 2 -6 -2 -2 -5 4 -10 14 -11
23 -2 13 0 13 14 2 14 -11 15 -10 9 6 -7 17 -6 17 10 5 15 -12 16 -12 10 4 -5
13 -3 17 5 14 7 -2 12 -12 10 -22 -2 -11 1 -14 8 -10 6 4 9 13 6 21 -3 8 1 14
10 14 9 0 12 -5 8 -12 -4 -7 -3 -8 4 -4 19 12 2 37 -22 31 -18 -5 -17 -3 4 9
22 13 26 13 32 -2 5 -10 6 -1 4 21 -3 27 -1 35 8 29 18 -14 48 -23 41 -12 -3
6 -2 10 3 10 5 0 15 11 22 25 10 20 16 22 27 13 8 -6 13 -7 12 -2 -4 15 12 44
21 39 5 -3 11 -1 14 4 4 5 1 13 -5 17 -8 5 -9 3 -4 -6 5 -8 4 -11 -3 -6 -6 3
-17 -2 -24 -12 -14 -19 -31 -22 -45 -8 -5 5 -3 6 5 2 6 -4 12 -2 12 3 0 6 5
10 12 8 7 -1 13 5 13 13 0 8 6 14 13 12 7 -1 15 5 18 13 4 8 11 15 16 15 7 0
6 -5 -1 -14 -9 -11 -8 -15 4 -20 9 -3 13 -2 10 4 -3 6 -3 15 1 22 5 8 10 6 15
-8 6 -16 8 -16 8 -2 1 12 7 16 19 12 13 -5 14 -4 3 4 -8 6 -22 9 -32 7 -10 -2
-21 0 -24 5 -3 4 13 7 34 6 22 0 39 3 38 8 -1 5 4 11 12 14 10 3 12 0 7 -14
-6 -15 -5 -16 5 -7 10 10 9 15 -1 28 -15 17 -31 20 -27 4 1 -6 -9 -13 -23 -15
-22 -4 -22 -2 10 21 19 14 45 38 57 53 l22 27 -4 -30 c-2 -16 -2 -24 1 -17 3
6 10 12 15 12 6 0 7 -5 3 -12 -4 -7 -3 -8 5 -4 9 6 9 11 0 22 -14 17 6 48 24
37 6 -4 8 0 5 9 -5 12 1 15 23 14 16 0 29 4 29 9 -1 6 -12 9 -25 8 -14 -1 -25
3 -25 9 0 6 3 8 7 5 3 -4 15 1 26 10 11 10 17 13 14 7 -4 -7 -1 -14 6 -17 16
-6 47 16 47 33 0 7 7 10 15 7 11 -5 12 -1 5 19 -7 18 -7 24 3 22 21 -4 58 13
51 23 -4 6 -13 4 -24 -6 -14 -13 -20 -14 -26 -3 -4 7 -4 10 1 6 4 -4 14 -3 22
3 11 10 11 15 1 28 -12 14 -11 14 5 2 11 -9 17 -10 17 -2 0 6 7 11 16 11 9 0
12 5 8 12 -5 7 -3 8 6 3 10 -6 7 -12 -10 -25 l-23 -17 22 -6 c11 -3 19 -1 16
4 -8 12 17 49 33 49 7 0 11 -4 8 -9 -7 -11 21 -8 31 4 4 4 2 5 -5 1 -7 -4 -15
-1 -18 8 -3 9 -10 13 -15 10 -5 -3 -6 2 -3 11 6 14 8 14 20 -2 10 -14 12 -14
11 -3 -2 8 -6 22 -11 30 -4 8 3 3 16 -12 21 -24 24 -25 24 -9 0 11 -3 18 -7
15 -12 -7 -17 20 -8 38 5 10 17 15 29 13 18 -3 46 26 35 37 -2 2 5 4 16 5 12
1 17 -3 13 -10 -3 -7 1 -4 9 5 8 10 16 15 19 13 3 -3 4 6 3 20 -2 14 0 23 5
20 8 -5 28 14 29 28 1 4 3 7 6 7 3 0 8 0 12 0 3 0 -1 -8 -10 -18 -12 -13 -13
-21 -6 -32 9 -13 10 -12 6 2 -5 15 20 48 30 40 3 -2 8 0 11 4 4 4 2 4 -4 1
-15 -9 -27 20 -12 29 7 4 8 3 4 -4 -4 -7 -2 -12 3 -12 6 0 12 5 12 10 2 11 5
25 9 38 1 4 2 10 1 15 -2 13 17 7 23 -8 3 -8 12 -12 21 -9 14 6 13 8 -2 21
-10 8 -12 11 -4 7 10 -5 13 -3 8 9 -4 11 -2 14 7 11 7 -3 19 2 26 10 7 9 16
13 21 10 5 -3 10 2 10 10 1 9 2 22 3 29 0 6 8 13 16 13 8 1 20 2 26 3 6 0 11
17 11 37 0 26 -6 38 -21 45 -18 8 -19 8 -4 -3 15 -11 15 -13 -5 -23 -12 -6
-21 -18 -19 -27 1 -9 -1 -19 -6 -22 -10 -6 -9 24 1 41 4 6 1 13 -5 16 -10 3
-9 8 2 22 12 15 12 17 1 10 -11 -6 -13 -4 -8 8 3 10 2 17 -4 17 -6 0 -8 8 -4
19 3 11 0 21 -8 24 -8 3 -14 -1 -14 -9 0 -7 3 -11 7 -9 3 2 6 -5 6 -15 0 -14
-3 -16 -13 -8 -7 6 -12 16 -11 22 2 6 -7 21 -20 34 -12 12 -22 17 -22 11 0 -5
-5 -7 -11 -3 -8 5 -8 8 0 14 7 4 11 11 10 16 -4 23 2 35 14 28 8 -5 8 -2 -2 9
-7 9 -19 17 -25 17 -6 0 -5 -4 3 -9 8 -5 9 -11 3 -15 -5 -3 -13 1 -16 10 -3 8
-11 12 -17 8 -7 -4 -9 -3 -5 4 3 5 3 12 -1 15 -5 2 -3 2 4 1 6 -2 14 4 17 12
3 9 11 12 17 8 8 -4 9 -3 5 5 -4 6 -13 8 -19 4 -20 -12 -59 -12 -54 0 2 7 14
11 25 9 12 -2 22 1 22 6 0 5 -14 8 -30 7 -17 -1 -34 3 -37 8 -3 6 -1 7 5 3 7
-4 12 -2 12 4 0 6 4 9 8 6 5 -3 9 1 9 9 0 8 -7 17 -15 20 -12 4 -12 8 -1 23
13 16 13 16 -5 2 -18 -14 -18 -13 -12 10 5 17 4 20 -2 12 -8 -11 -10 -11 -15
1 -3 8 0 21 6 28 10 11 9 11 -5 1 -9 -7 -29 -15 -45 -17 -15 -2 -22 -2 -15 1
6 3 12 10 12 15 0 6 -4 7 -10 4 -5 -3 -10 -1 -10 4 0 14 13 14 28 -1 9 -9 15
-9 25 1 10 10 8 11 -7 5 -15 -6 -17 -4 -11 6 6 9 4 11 -5 5 -10 -6 -12 -4 -7
7 3 9 3 19 -1 23 -4 4 -7 12 -7 18 0 13 -44 15 -65 2 -13 -8 -13 -6 -1 8 11
13 11 17 1 17 -8 0 -11 3 -8 6 4 3 16 0 28 -6 20 -11 21 -10 10 10 -6 12 -9
24 -6 27 3 3 -8 16 -25 30 -16 14 -29 31 -29 39 0 8 -7 14 -17 14 -14 0 -14
-2 2 -20 10 -11 16 -20 13 -20 -11 0 -78 63 -78 73 0 5 8 -1 18 -13 18 -23 42
-21 42 3 0 8 -3 8 -9 -2 -5 -8 -11 -9 -15 -3 -4 6 2 16 11 22 16 9 15 10 -5 5
-12 -4 -22 -3 -21 2 4 21 -2 34 -12 27 -8 -4 -7 -9 2 -16 11 -8 11 -9 -1 -5
-8 2 -14 12 -12 22 2 9 -1 14 -7 11 -5 -4 -15 2 -20 12 -7 14 -6 25 6 43 l16
24 -24 -22 c-18 -17 -28 -19 -39 -12 -13 9 -12 10 3 5 9 -3 17 -1 17 4 0 19 3
25 19 38 9 8 10 11 3 7 -7 -4 -19 -1 -27 5 -8 6 -19 9 -25 5 -5 -3 -13 1 -16
9 -3 9 -9 14 -13 11 -4 -2 -8 2 -8 10 0 8 4 12 8 10 3 -3 9 4 12 15 4 16 2 18
-13 10 -13 -7 -21 -7 -25 0 -4 6 -11 7 -17 4 -6 -4 -8 -2 -4 4 3 5 0 13 -6 16
-7 2 -4 4 7 3 11 -2 25 -6 31 -10 7 -4 18 1 25 11 12 15 12 16 -2 5 -20 -16
-32 -5 -17 16 10 13 10 14 -2 4 -17 -15 -34 -17 -25 -3 3 6 2 10 -4 10 -5 0
-11 -3 -14 -7 -2 -5 -2 -2 -1 5 2 6 -1 12 -6 12 -6 0 -10 6 -10 14 0 8 -6 16
-12 19 -10 3 -10 8 1 18 12 12 13 12 6 0 -6 -10 -4 -12 6 -6 8 5 11 5 7 0 -9
-9 9 -45 22 -45 6 0 10 5 10 11 0 5 -5 7 -12 3 -8 -5 -9 -2 -5 9 3 9 2 19 -4
22 -5 4 -7 10 -4 15 3 5 -4 7 -16 5 -13 -3 -26 -10 -31 -17 -4 -7 -8 -9 -8 -4
0 5 8 18 18 29 17 19 16 20 -8 7 -14 -7 -22 -9 -18 -5 4 4 -2 16 -14 26 -11
11 -16 19 -9 19 7 0 10 4 6 9 -3 5 -1 12 4 16 6 3 8 -3 6 -14 -5 -24 20 -48
31 -30 4 8 3 9 -4 5 -12 -7 -15 4 -15 46 0 10 -3 15 -7 13 -12 -7 -42 44 -34
58 5 9 4 9 -6 0 -11 -10 -11 -15 0 -28 7 -8 10 -19 6 -22 -4 -4 -11 -1 -15 6
-7 11 -9 11 -14 0 -3 -8 -4 -3 -3 11 1 14 5 31 9 36 3 6 0 11 -8 11 -7 0 -12
-8 -10 -18 2 -10 0 -21 -5 -24 -4 -3 -7 3 -5 12 1 10 -1 25 -6 35 -7 13 -5 15
10 11 22 -6 37 12 20 23 -8 5 -9 3 -4 -6 6 -10 2 -11 -19 -6 -17 4 -26 2 -26
-5 0 -7 -2 -10 -5 -7 -10 10 7 37 20 32 7 -3 16 -1 20 5 3 7 0 8 -9 5 -11 -4
-22 4 -33 24 -10 17 -27 33 -38 36 -18 5 -18 3 3 -12 19 -15 21 -21 12 -42
l-10 -25 3 28 c3 15 0 27 -7 27 -14 0 -37 36 -29 44 3 3 11 2 17 -4 7 -5 17
-5 26 0 11 7 11 10 3 11 -7 1 -17 3 -23 4 -5 1 -16 3 -22 4 -7 2 -4 6 7 11 18
8 17 9 -7 9 -15 1 -30 6 -33 11 -4 6 -11 8 -16 5 -5 -3 -6 1 -3 9 3 9 1 16 -5
16 -6 0 -11 5 -11 11 0 8 4 8 14 0 11 -9 15 -8 20 4 3 9 2 13 -4 10 -6 -3 -10
-1 -10 5 0 6 -4 8 -10 5 -6 -3 -10 1 -10 10 0 13 4 14 23 5 21 -11 21 -10 3 4
-10 9 -24 13 -29 9 -7 -4 -8 1 -3 13 4 10 4 15 0 12 -15 -16 -65 66 -56 92 2
8 2 12 -2 8 -4 -3 -9 -14 -10 -25 -2 -10 -6 -17 -9 -15 -4 1 -9 2 -11 2 -3 0
1 12 9 27 14 27 11 48 -5 38 -5 -3 -7 -13 -4 -23 5 -15 4 -15 -6 1 -6 9 -16
14 -22 11 -7 -4 -8 -2 -4 5 4 6 12 9 17 6 5 -4 9 -1 9 4 0 6 -4 11 -8 11 -5 0
-17 7 -28 16 -10 8 -12 13 -4 9 8 -4 4 2 -9 13 -14 11 -32 18 -40 15 -11 -4
-11 -2 2 9 17 13 17 15 3 27 -16 14 -12 36 5 25 5 -3 7 -10 4 -15 -4 -5 2 -6
11 -2 11 4 13 8 6 11 -7 2 -10 7 -8 11 7 11 -27 10 -41 -2 -7 -5 -14 -7 -14
-3 -2 10 -6 25 -9 34 -1 4 -2 11 -1 15 1 4 -5 10 -13 13 -12 5 -13 9 -3 19 9
9 17 10 32 2 11 -5 3 6 -18 25 -20 19 -34 39 -30 43 5 5 -1 3 -11 -5 -17 -14
-18 -13 -12 8 6 18 4 22 -13 20 -11 -2 -20 1 -20 6 1 5 -5 12 -13 17 -11 7
-10 10 1 21 9 8 11 9 7 1 -3 -6 -2 -14 4 -18 6 -4 8 -11 5 -16 -4 -5 -1 -9 4
-9 11 0 10 35 -2 46 -12 12 -8 26 6 18 7 -4 9 -3 4 2 -5 5 -14 9 -20 9 -7 1
-11 6 -10 13 2 7 -2 12 -7 12 -6 0 -10 -4 -10 -10 0 -15 -19 -12 -36 5 -18 18
-4 20 15 3 11 -11 11 -9 1 10 -6 13 -17 21 -25 18 -7 -2 -16 1 -18 8 -4 9 2
11 18 8 12 -2 26 1 29 7 5 7 -1 10 -15 8 -12 -1 -24 4 -26 13 -3 11 -2 11 4 3
6 -9 12 -8 20 6 10 16 8 18 -10 17 -14 -1 -23 6 -25 18 -3 13 0 16 9 11 8 -5
10 -4 5 4 -4 6 -11 9 -15 7 -4 -3 -17 2 -29 10 -19 13 -20 19 -11 37 12 22 12
22 -9 3 -20 -17 -20 -20 -6 -31 15 -11 15 -12 0 -12 -9 0 -16 3 -17 6 0 3 -2
14 -4 24 -2 9 0 15 5 12 4 -3 11 2 14 11 3 8 2 12 -4 9 -11 -7 -47 11 -70 34
-13 13 -13 14 2 9 10 -4 19 -1 22 8 8 22 7 31 -2 17 -6 -9 -15 -4 -34 17 -20
22 -22 30 -11 34 8 3 11 2 8 -3 -3 -5 -2 -12 3 -15 4 -2 8 9 7 25 0 22 -2 26
-10 16 -11 -15 -35 -12 -35 4 0 5 3 8 8 7 4 -2 8 0 10 5 6 18 0 19 -19 1 -15
-14 -20 -15 -17 -4 2 10 -4 14 -17 13 -11 -1 -14 0 -7 3 6 3 9 11 6 16 -4 7
-2 8 4 4 7 -4 12 -2 12 4 0 6 5 8 13 4 8 -5 8 -2 -2 9 -7 9 -19 17 -25 17 -6
0 -4 -5 4 -11 13 -9 12 -10 -2 -5 -10 3 -18 0 -18 -6 0 -6 -3 -8 -6 -5 -4 4
-1 13 5 21 10 11 8 17 -10 30 -12 8 -27 12 -32 9 -6 -3 -7 -1 -3 5 3 6 2 13
-3 17 -6 3 -8 12 -5 20 4 8 11 12 16 9 7 -4 6 -9 -1 -14 -9 -5 -7 -10 4 -20
13 -11 14 -10 9 5 -5 11 -4 16 3 12 5 -3 10 0 10 8 0 8 -5 13 -11 12 -6 -1
-10 4 -8 12 3 12 1 12 -13 1 -15 -12 -18 -12 -27 3 -5 10 -14 15 -20 11 -5 -4
-2 5 7 19 16 26 16 27 -12 51 -30 28 -43 32 -43 15 0 -5 5 -7 12 -3 7 5 8 3 3
-6 -6 -9 -4 -11 5 -5 9 6 11 4 5 -5 -6 -9 -4 -11 5 -5 9 6 11 4 5 -5 -6 -9 -4
-11 5 -5 9 6 11 4 5 -5 -6 -9 -4 -11 5 -5 8 5 11 4 6 -3 -4 -6 -14 -8 -23 -5
-12 5 -14 3 -8 -8 5 -8 4 -11 -1 -6 -5 5 -9 16 -9 25 0 9 -5 16 -11 15 -10 -2
-11 13 -5 50 0 5 7 5 14 0 7 -4 5 4 -4 18 -12 17 -14 30 -8 41 6 11 5 19 -1
23 -6 4 -10 3 -9 -2 4 -22 -3 -33 -18 -33 -15 0 -16 2 -3 10 12 8 12 10 1 10
-8 0 -20 -8 -28 -17 -13 -16 -13 -16 -4 4 6 12 16 24 23 26 7 3 3 6 -9 6 -14
1 -23 7 -23 17 0 8 4 13 8 10 4 -2 14 0 22 5 11 7 8 8 -10 5 -14 -2 -34 -7
-45 -11 l-20 -7 20 17 c18 14 30 55 16 53 -3 0 -16 3 -28 7 -25 8 -31 40 -10
49 6 3 1 3 -12 0 -15 -4 -21 -2 -17 4 3 6 -1 17 -9 25 -16 17 -21 32 -7 23 5
-3 9 1 9 9 0 13 -3 13 -18 -1 -11 -10 -19 -12 -24 -4 -3 5 -10 8 -15 5 -4 -3
-10 1 -13 8 -3 7 3 13 13 13 10 0 16 -4 14 -8 -3 -4 2 -5 11 -1 13 5 14 7 3
14 -10 7 -11 9 0 9 7 0 10 5 6 11 -5 8 -10 6 -16 -5 -9 -17 -28 -13 -28 5 0 6
4 7 10 4 6 -3 7 1 4 9 -7 19 -20 21 -30 4 -4 -7 -3 -8 4 -4 8 5 10 1 5 -10 -5
-14 -9 -12 -20 11 -18 34 -29 90 -13 63 6 -10 16 -18 21 -18 6 0 3 7 -5 16 -9
8 -14 20 -11 25 8 12 -2 12 -24 0 -13 -7 -18 -6 -18 4 0 8 4 12 9 9 4 -3 8 0
8 5 0 6 -7 11 -15 11 -8 0 -15 -4 -15 -10 0 -5 -4 -10 -8 -10 -4 0 -8 11 -8
25 0 17 3 22 10 15 5 -5 14 -10 20 -10 5 0 -1 8 -12 19 -27 22 -27 29 -4 55
16 20 16 20 0 7 -17 -13 -23 -8 -19 13 1 5 -10 1 -24 -8 -18 -12 -24 -13 -23
-4 2 7 -2 12 -8 11 -8 -2 -9 8 -4 32 6 26 5 32 -6 28 -8 -3 -12 -8 -9 -12 2
-4 -2 -8 -10 -8 -11 0 -12 4 -4 13 7 8 6 13 -3 17 -10 4 -10 7 1 18 8 8 11 9
7 2 -7 -14 10 -28 18 -14 3 5 -1 14 -9 21 -8 7 -13 15 -11 19 3 4 -5 8 -16 8
-19 2 -19 1 -4 -10 16 -12 16 -13 -3 -13 -11 0 -19 5 -18 11 1 5 -4 9 -11 7
-9 -1 -11 2 -6 10 13 20 12 48 -2 48 -6 0 -14 6 -17 14 -4 9 2 12 17 11 14 -2
23 3 23 11 0 10 -4 11 -13 3 -7 -6 -18 -8 -24 -4 -7 5 -5 12 7 21 17 13 17 14
-1 7 -13 -4 -17 -3 -12 5 4 7 -1 10 -14 7 -11 -2 -20 2 -21 8 0 7 -4 3 -9 -8
-7 -16 -9 -17 -9 -3 -1 9 -6 18 -13 20 -7 3 -5 7 6 11 9 4 15 3 12 -1 -2 -4 4
-8 14 -8 18 0 21 19 5 33 -4 4 -5 2 -1 -4 9 -16 -10 -17 -19 -2 -4 6 -13 8
-21 5 -8 -3 -14 -1 -14 4 0 6 9 10 19 10 10 0 22 8 26 18 5 14 4 15 -6 5 -7
-7 -17 -13 -22 -13 -4 0 -5 6 -1 13 5 7 0 6 -11 -3 -15 -12 -17 -12 -10 -1 9
16 16 66 8 57 -3 -3 -14 -1 -24 4 -12 7 -20 6 -25 -2 -4 -7 -3 -8 4 -4 8 5 10
2 6 -8 -3 -9 -1 -16 6 -16 6 0 8 5 4 11 -4 7 -1 10 7 7 8 -3 14 -11 14 -18 0
-16 -41 -21 -43 -6 -7 55 -6 86 2 89 6 2 2 6 -7 10 -9 3 -19 1 -23 -5 -4 -6
-3 -8 2 -5 6 3 11 -4 11 -16 2 -20 1 -20 -8 -4 -6 9 -14 15 -18 13 -4 -3 -8 1
-8 9 0 8 4 12 8 10 4 -3 10 2 13 11 7 17 -22 46 -36 38 -14 -9 -8 -26 7 -21 8
4 17 1 21 -6 4 -7 4 -9 -1 -5 -4 4 -15 3 -24 -2 -15 -7 -17 -3 -17 31 1 21 6
39 11 39 6 0 3 5 -5 10 -18 12 -40 14 -25 2 14 -10 18 -42 5 -42 -6 0 -9 4 -6
8 2 4 1 14 -4 22 -5 8 -4 22 1 33 10 18 11 18 25 0 14 -17 14 -16 4 4 l-11 23
-1080 0 -1080 0 11 -21z m80 -55 c0 -8 -19 -13 -24 -6 -3 5 1 9 9 9 8 0 15 -2
15 -3z m71 -101 c13 -16 12 -17 -3 -4 -10 7 -18 15 -18 17 0 8 8 3 21 -13z
m32 -90 c-3 -7 -6 -13 -8 -13 -2 0 -5 6 -8 13 -3 8 1 14 8 14 7 0 11 -6 8 -14z
m2087 -27 c0 -2 -7 -7 -16 -10 -8 -3 -12 -2 -9 4 6 10 25 14 25 6z m-2027 -51
c-3 -9 -8 -14 -10 -11 -3 3 -2 9 2 15 9 16 15 13 8 -4z m2109 -48 c-5 -17 -7
-18 -10 -5 -2 11 -9 15 -20 11 -13 -4 -12 -2 3 10 25 19 35 14 27 -16z m-3861
-94 c13 -15 12 -15 -8 -4 -24 12 -29 21 -14 21 5 0 15 -7 22 -17z m80 0 c13
-15 12 -15 -8 -4 -24 12 -29 21 -14 21 5 0 15 -7 22 -17z m80 0 c13 -15 12
-15 -8 -4 -24 12 -29 21 -14 21 5 0 15 -7 22 -17z m80 0 c13 -15 12 -15 -8 -4
-24 12 -29 21 -14 21 5 0 15 -7 22 -17z m80 0 c13 -15 12 -15 -8 -4 -24 12
-29 21 -14 21 5 0 15 -7 22 -17z m1259 -14 c0 -6 -4 -7 -10 -4 -5 3 -10 11
-10 16 0 6 5 7 10 4 6 -3 10 -11 10 -16z m2455 -128 c3 -6 -4 -15 -15 -21 -20
-11 -21 -10 -10 9 12 23 16 25 25 12z m-4158 -17 c0 -7 -6 -10 -14 -7 -7 3
-13 8 -13 12 0 4 6 8 13 8 8 0 14 -6 14 -13z m132 -234 c-6 -16 -15 -27 -21
-24 -6 4 -6 9 -1 13 5 3 12 14 16 24 11 30 16 18 6 -13z m4206 -50 c3 -5 1
-10 -4 -10 -6 0 -11 5 -11 10 0 6 2 10 4 10 3 0 8 -4 11 -10z m15 -35 c0 -2
-6 -5 -13 -8 -8 -3 -14 1 -14 8 0 7 6 11 14 8 7 -3 13 -6 13 -8z m0 -29 c0 -2
-8 -10 -17 -17 -16 -13 -17 -12 -4 4 13 16 21 21 21 13z m31 -26 c6 0 7 6 3
13 -5 8 -2 8 9 -2 9 -7 17 -19 17 -25 0 -7 -3 -7 -8 -1 -4 6 -13 10 -21 10 -8
0 -15 6 -17 13 -1 7 0 8 3 2 2 -5 9 -10 14 -10z m37 -95 c-3 -3 -9 2 -12 12
-6 14 -5 15 5 6 7 -7 10 -15 7 -18z m67 -45 c0 -7 -7 -15 -15 -17 -13 -4 -13
-3 0 6 13 10 13 12 0 22 -13 9 -13 10 0 6 8 -2 15 -10 15 -17z m-4110 -102 c4
-3 2 -9 -3 -12 -5 -3 -15 1 -21 8 -10 11 -9 14 3 12 9 -1 18 -5 21 -8z m39
-20 c-3 -4 -9 -8 -15 -8 -5 0 -9 4 -9 8 0 5 7 9 15 9 8 0 12 -4 9 -9z m40 -94
c3 -8 2 -12 -4 -9 -6 3 -10 10 -10 16 0 14 7 11 14 -7z m4220 -122 c3 -5 -1
-9 -9 -9 -8 0 -12 4 -9 9 3 4 7 8 9 8 2 0 6 -4 9 -8z m-4078 -101 c0 -11 -5
-17 -13 -14 -17 6 -17 20 0 26 6 3 12 6 12 6 1 1 1 -7 1 -18z m4169 -41 c3 -6
-1 -7 -9 -4 -18 7 -21 14 -7 14 6 0 13 -4 16 -10z m-4145 -37 c0 -19 -13 -9
-16 12 -1 8 2 13 7 9 5 -3 9 -12 9 -21z m4236 -48 c9 -18 9 -28 0 -41 -12 -15
-13 -15 -13 0 0 9 4 16 9 16 5 0 6 5 3 10 -4 6 -10 8 -15 5 -5 -3 -11 -1 -15
5 -4 6 -10 8 -14 6 -4 -3 -8 1 -8 9 0 8 4 12 9 9 4 -3 8 -1 8 5 0 18 24 2 36
-24z m89 -145 c-3 -5 -13 -6 -21 -3 -12 4 -13 8 -3 14 15 9 32 2 24 -11z m-44
-7 c13 -16 12 -17 -3 -4 -17 13 -22 21 -14 21 2 0 10 -8 17 -17z m-4105 -28
c-3 -24 -12 -27 -27 -8 -9 11 -10 14 -1 9 6 -4 12 -2 12 3 0 6 4 11 9 11 5 0
8 -7 7 -15z m4188 -48 c-3 -8 -12 -14 -21 -14 -13 0 -13 2 3 14 10 7 19 13 21
13 1 0 0 -6 -3 -13z m50 -58 c-3 -5 -10 -7 -15 -3 -5 3 -7 10 -4 15 4 5 2 9
-4 9 -5 0 -11 -5 -13 -12 -3 -7 -7 -5 -11 6 -4 10 -3 15 3 11 6 -3 10 -1 10 6
0 8 7 5 20 -6 11 -10 17 -22 14 -26z m46 -129 c0 -5 -2 -10 -4 -10 -3 0 -8 5
-11 10 -3 6 -1 10 4 10 6 0 11 -4 11 -10z m-4109 -53 c-6 -8 -7 -18 -3 -22 4
-5 1 -5 -6 -1 -10 6 -10 11 -1 22 6 8 14 14 16 14 3 0 0 -6 -6 -13z m22 -12
c-3 -9 -8 -14 -10 -11 -3 3 -2 9 2 15 9 16 15 13 8 -4z m4152 -23 c-3 -3 -11
0 -18 7 -9 10 -8 11 6 5 10 -3 15 -9 12 -12z m-4135 -6 c0 -3 -4 -8 -10 -11
-5 -3 -10 -1 -10 4 0 6 5 11 10 11 6 0 10 -2 10 -4z m10 -26 c0 -5 -5 -10 -11
-10 -5 0 -7 5 -4 10 3 6 8 10 11 10 2 0 4 -4 4 -10z m4191 -73 c-10 -9 -11 -8
-5 6 3 10 9 15 12 12 3 -3 0 -11 -7 -18z m34 -36 c-6 -5 -25 10 -25 20 0 5 6
4 14 -3 8 -7 12 -15 11 -17z m19 -27 c3 -8 2 -12 -4 -9 -6 3 -10 10 -10 16 0
14 7 11 14 -7z m11 -73 c3 -5 2 -12 -3 -15 -5 -3 -9 1 -9 9 0 17 3 19 12 6z
m40 -31 c3 -5 1 -10 -4 -10 -6 0 -11 5 -11 10 0 6 2 10 4 10 3 0 8 -4 11 -10z
m-4084 -67 c13 -16 12 -17 -3 -4 -10 7 -18 15 -18 17 0 8 8 3 21 -13z m4184
-32 c3 -5 2 -12 -3 -15 -5 -3 -9 1 -9 9 0 17 3 19 12 6z m99 -150 c-5 -3 -12
-10 -15 -14 -4 -4 -9 -1 -13 8 -3 9 -2 13 4 10 6 -3 10 -1 10 5 0 6 5 8 11 4
6 -3 7 -9 3 -13z m-4084 -136 c11 -13 10 -14 -4 -9 -9 3 -16 10 -16 15 0 13 6
11 20 -6z m12 -47 c-3 -14 -7 -16 -18 -7 -20 16 -17 28 5 26 12 -1 17 -7 13
-19z m58 -99 c0 -5 5 -7 12 -3 7 4 8 3 4 -5 -6 -9 -11 -9 -22 0 -17 14 -18 19
-4 19 6 0 10 -5 10 -11z m4206 -35 c2 -11 -1 -12 -10 -5 -7 6 -15 8 -18 5 -3
-3 -9 0 -14 7 -4 7 -3 10 4 5 6 -3 14 -1 17 5 8 12 18 5 21 -17z m-4093 -69
c-3 -9 -8 -14 -10 -11 -3 3 -2 9 2 15 9 16 15 13 8 -4z m67 -125 c0 -5 -2 -10
-4 -10 -3 0 -8 5 -11 10 -3 6 -1 10 4 10 6 0 11 -4 11 -10z m-7 -23 c4 3 7 4
7 0 0 -18 -21 -14 -30 5 -10 21 -10 21 3 6 8 -10 17 -15 20 -11z m4210 -36 c3
-14 0 -17 -14 -14 -16 5 -17 8 -7 21 11 13 11 14 0 8 -7 -4 -20 -5 -29 -2 -12
5 -13 9 -3 21 11 14 15 14 30 0 10 -9 20 -24 23 -34z m44 -58 c-4 -3 -1 -13 6
-21 9 -13 9 -14 0 -8 -7 4 -13 2 -13 -3 0 -6 -5 -11 -11 -11 -8 0 -8 5 1 15
10 12 10 15 -1 15 -11 0 -11 2 1 10 17 11 26 13 17 3z m-4140 -69 c0 -7 -6
-10 -14 -7 -7 3 -13 8 -13 12 0 4 6 8 13 8 8 0 14 -6 14 -13z m4208 -57 c28
-46 28 -47 10 -47 -9 0 -15 6 -14 13 1 6 -1 20 -6 30 -6 15 -10 16 -16 5 -6
-9 -8 -6 -6 10 2 30 8 28 32 -11z m-4145 -27 c6 -11 8 -20 6 -20 -3 0 -10 9
-16 20 -6 11 -8 20 -6 20 3 0 10 -9 16 -20z m31 -113 c-10 -9 -11 -8 -5 6 3
10 9 15 12 12 3 -3 0 -11 -7 -18z m134 -137 c3 -6 -1 -7 -9 -4 -18 7 -21 14
-7 14 6 0 13 -4 16 -10z m-15 -21 c0 -5 4 -7 10 -4 6 4 7 -1 3 -12 -6 -16 -5
-16 10 -4 9 7 17 11 17 8 0 -2 -6 -10 -14 -16 -11 -9 -17 -6 -30 14 -9 14 -12
25 -6 25 5 0 10 -5 10 -11z m188 -255 c4 -4 -1 -4 -10 -1 -9 3 -18 1 -20 -5
-2 -6 -9 -4 -16 5 -10 12 -8 14 14 11 14 -1 29 -6 32 -10z m95 -192 c-3 -12
-9 -19 -14 -16 -5 3 -3 14 3 24 15 24 19 21 11 -8z m3517 -52 c0 -5 -2 -10 -4
-10 -3 0 -8 5 -11 10 -3 6 -1 10 4 10 6 0 11 -4 11 -10z m-3425 -60 c3 -5 1
-10 -4 -10 -6 0 -11 5 -11 10 0 6 2 10 4 10 3 0 8 -4 11 -10z m3300 -40 c-3
-5 -12 -10 -18 -10 -7 0 -6 4 3 10 19 12 23 12 15 0z m-5 -40 c-25 -35 -25
-35 -27 -12 -1 14 15 29 45 41 2 0 -6 -12 -18 -29z m-3410 -34 c0 -18 -27 -29
-36 -14 -4 6 -3 8 3 5 6 -4 13 0 17 8 7 19 16 19 16 1z m3300 -26 c0 -5 -5
-10 -11 -10 -5 0 -7 5 -4 10 3 6 8 10 11 10 2 0 4 -4 4 -10z m-25 -28 c-3 -3
-11 0 -18 7 -9 10 -8 11 6 5 10 -3 15 -9 12 -12z m-56 -44 c-5 -10 -11 -18
-12 -18 -2 0 -3 8 -3 18 0 10 6 19 13 19 8 0 9 -6 2 -19z m-3559 -213 c0 -5
-5 -3 -10 5 -5 8 -10 20 -10 25 0 6 5 3 10 -5 5 -8 10 -19 10 -25z m3371 2
c-17 -18 -23 -19 -33 -8 -11 11 -10 13 0 7 16 -9 44 12 35 27 -4 6 -1 7 6 2
10 -6 8 -13 -8 -28z m-3474 -62 c4 -4 2 -5 -4 -1 -7 4 -13 2 -13 -3 0 -6 -4
-11 -8 -11 -5 0 -9 6 -9 14 0 15 21 16 34 1z m3297 -110 c-12 -19 -22 -24 -37
-19 -11 3 -17 2 -14 -3 7 -11 -29 -10 -40 1 -5 4 -3 7 2 6 21 -5 36 0 30 10
-4 6 1 7 11 3 13 -5 15 -3 9 7 -5 9 -4 11 4 6 6 -4 8 -13 5 -19 -4 -7 3 -2 15
11 29 29 35 28 15 -3z m-3425 1 c9 -11 9 -16 -1 -22 -7 -4 -10 -4 -6 1 4 4 3
14 -3 22 -6 7 -9 13 -6 13 2 0 10 -6 16 -14z m3331 -76 c0 -5 -7 -7 -15 -4 -8
4 -15 8 -15 10 0 2 7 4 15 4 8 0 15 -4 15 -10z m-3448 -11 c2 -2 1 -3 -1 -2
-1 1 -15 -3 -29 -8 -21 -8 -23 -7 -13 5 11 13 36 16 43 5z m3422 -13 c-3 -9
-12 -12 -22 -9 -15 6 -9 11 25 22 1 1 0 -5 -3 -13z m-3494 -26 c0 -5 -5 -10
-11 -10 -5 0 -7 5 -4 10 3 6 8 10 11 10 2 0 4 -4 4 -10z m3460 6 c0 -2 -7 -7
-16 -10 -8 -3 -12 -2 -9 4 6 10 25 14 25 6z m-3533 -75 c-1 -14 -5 -17 -12
-11 -8 7 -16 2 -25 -15 -7 -13 -17 -22 -21 -19 -10 6 32 50 44 47 4 -2 7 2 7
7 0 6 2 10 4 10 3 0 4 -9 3 -19z m33 9 c0 -5 -4 -10 -10 -10 -5 0 -10 5 -10
10 0 6 5 10 10 10 6 0 10 -4 10 -10z m-211 -156 c-14 -13 -16 -13 -16 0 0 8 4
13 9 10 4 -3 8 0 8 7 0 7 3 9 7 5 4 -3 0 -13 -8 -22z m-125 -99 c-3 -7 -12
-16 -20 -19 -9 -3 -12 -11 -8 -18 5 -10 4 -10 -7 0 -12 11 -12 14 1 22 8 5 16
14 16 20 3 19 4 21 14 15 5 -3 7 -12 4 -20z m31 15 c3 -5 1 -10 -4 -10 -6 0
-11 5 -11 10 0 6 2 10 4 10 3 0 8 -4 11 -10z m3428 -33 c9 -24 -8 -40 -23 -22
-11 13 -10 14 6 8 17 -6 17 -5 5 10 -7 9 -9 17 -3 17 5 0 12 -6 15 -13z m-83
-58 c0 -5 -4 -9 -8 -9 -5 0 -9 7 -9 15 0 8 4 12 9 9 4 -3 8 -9 8 -15z m-986
-128 c-2 -3 -12 3 -22 13 -16 17 -16 18 5 5 12 -7 20 -15 17 -18z m160 0 c-2
-3 -12 3 -22 13 -16 17 -16 18 5 5 12 -7 20 -15 17 -18z m119 16 c3 -8 -1 -14
-8 -14 -7 0 -11 6 -8 14 3 7 6 13 8 13 2 0 5 -6 8 -13z m124 0 c0 -8 -6 -14
-14 -14 -9 0 -10 4 -2 14 6 7 12 13 14 13 1 0 2 -6 2 -13z m116 0 c3 -8 -1
-14 -8 -14 -7 0 -11 6 -8 14 3 7 6 13 8 13 2 0 5 -6 8 -13z m240 0 c3 -8 -1
-14 -8 -14 -7 0 -11 6 -8 14 3 7 6 13 8 13 2 0 5 -6 8 -13z m-1195 -72 c-3 -3
-9 2 -12 12 -6 14 -5 15 5 6 7 -7 10 -15 7 -18z m-2377 -108 c-10 -9 -11 -8
-5 6 3 10 9 15 12 12 3 -3 0 -11 -7 -18z m2229 -52 c-7 -9 -15 -13 -19 -10 -3
3 1 10 9 15 21 14 24 12 10 -5z m-2317 -20 c-3 -9 -8 -14 -10 -11 -3 3 -2 9 2
15 9 16 15 13 8 -4z m2238 -22 c-12 -20 -14 -14 -5 12 4 9 9 14 11 11 3 -2 0
-13 -6 -23z m-15 -57 c-11 -6 -33 -23 -49 -38 -35 -33 -33 -32 -41 -12 -4 12
-2 15 9 11 18 -7 30 9 13 17 -7 3 -4 4 7 3 13 -1 20 4 19 13 -1 10 9 16 30 16
28 1 29 0 12 -10z m-2366 -21 c14 -19 14 -19 -2 -6 -10 7 -18 18 -18 24 0 6 1
8 3 6 1 -2 9 -13 17 -24z m-110 -125 c0 -5 -5 -10 -11 -10 -5 0 -7 5 -4 10 3
6 8 10 11 10 2 0 4 -4 4 -10z"/>
<path d="M4975 4520 c3 -5 8 -10 11 -10 2 0 4 5 4 10 0 6 -5 10 -11 10 -5 0
-7 -4 -4 -10z"/>
<path d="M5985 2950 c-3 -5 1 -10 10 -10 9 0 13 5 10 10 -3 6 -8 10 -10 10 -2
0 -7 -4 -10 -10z"/>
<path d="M1754 6213 c15 -4 16 -7 5 -15 -11 -7 -11 -9 -1 -6 20 5 16 23 -5 25
-15 2 -15 1 1 -4z"/>
<path d="M1795 6160 c-3 -5 -1 -10 4 -10 6 0 11 5 11 10 0 6 -2 10 -4 10 -3 0
-8 -4 -11 -10z"/>
<path d="M3975 6161 c-3 -5 -2 -12 3 -15 5 -3 9 1 9 9 0 17 -3 19 -12 6z"/>
<path d="M1867 6048 c-4 -12 -4 -24 -2 -27 3 -2 5 1 5 7 0 6 6 9 14 6 8 -3 12
-13 9 -22 -4 -14 -3 -14 5 -3 7 10 7 21 1 32 -15 28 -26 31 -32 7z"/>
<path d="M1904 5941 c7 -11 46 -35 46 -28 0 3 -12 12 -26 22 -15 9 -23 12 -20
6z"/>
<path d="M2001 5836 c-10 -12 -8 -13 8 -9 12 3 18 9 15 14 -7 12 -10 11 -23
-5z"/>
<path d="M4195 5798 c1 -12 7 -23 14 -24 6 -1 7 0 2 2 -6 3 -8 11 -5 19 3 7 1
15 -4 19 -5 3 -8 -5 -7 -16z"/>
<path d="M5 5725 c0 -28 4 -42 13 -42 9 0 12 8 8 21 -3 11 2 28 11 39 16 17
16 17 -2 11 -11 -5 -16 -4 -12 3 3 5 1 10 -6 10 -8 0 -12 -16 -12 -42z"/>
<path d="M70 5760 c0 -5 5 -10 10 -10 6 0 10 5 10 10 0 6 -4 10 -10 10 -5 0
-10 -4 -10 -10z"/>
<path d="M4295 5671 c-3 -5 -2 -12 3 -15 5 -3 9 1 9 9 0 17 -3 19 -12 6z"/>
<path d="M15 5660 c3 -5 8 -10 11 -10 2 0 4 5 4 10 0 6 -5 10 -11 10 -5 0 -7
-4 -4 -10z"/>
<path d="M4264 5653 c2 -10 6 -17 10 -16 15 3 16 11 2 22 -12 10 -14 9 -12 -6z"/>
<path d="M4330 5591 c0 -6 4 -13 10 -16 6 -3 7 1 4 9 -7 18 -14 21 -14 7z"/>
<path d="M4387 5443 c3 -7 9 -13 13 -13 4 0 12 6 18 13 8 9 5 12 -13 12 -14 0
-21 -5 -18 -12z"/>
<path d="M175 5440 c-3 -6 1 -7 9 -4 18 7 21 14 7 14 -6 0 -13 -4 -16 -10z"/>
<path d="M214 5399 c-4 -7 -3 -9 4 -5 5 3 12 0 15 -6 2 -7 7 -10 11 -7 4 3 0
12 -8 18 -11 9 -16 9 -22 0z"/>
<path d="M4550 5260 c0 -5 5 -10 11 -10 5 0 7 5 4 10 -3 6 -8 10 -11 10 -2 0
-4 -4 -4 -10z"/>
<path d="M302 5240 c0 -14 2 -19 5 -12 2 6 2 18 0 25 -3 6 -5 1 -5 -13z"/>
<path d="M405 5121 c3 -6 1 -11 -5 -11 -7 0 -5 -7 4 -16 9 -8 13 -21 9 -27 -3
-7 -3 -9 2 -5 14 13 45 -11 39 -30 -5 -14 -4 -15 5 -2 9 12 5 19 -14 35 -16
14 -22 24 -15 31 6 6 2 14 -11 22 -12 8 -18 9 -14 3z"/>
<path d="M4690 5041 c0 -6 4 -13 10 -16 6 -3 7 1 4 9 -7 18 -14 21 -14 7z"/>
<path d="M460 5000 c0 -5 7 -7 15 -4 8 4 15 8 15 10 0 2 -7 4 -15 4 -8 0 -15
-4 -15 -10z"/>
<path d="M4705 4970 c-8 -13 15 -24 27 -12 6 6 4 11 -6 15 -8 3 -18 2 -21 -3z"/>
<path d="M515 4911 c-3 -5 -2 -12 3 -15 5 -3 9 1 9 9 0 17 -3 19 -12 6z"/>
<path d="M549 4907 c0 -1 -2 -10 -4 -19 -3 -15 0 -16 16 -8 10 6 19 12 19 14
0 4 -30 17 -31 13z"/>
<path d="M4777 4897 c-3 -7 1 -21 8 -30 15 -21 22 -22 22 -3 0 8 -5 14 -11 13
-6 -1 -10 6 -8 16 3 20 -4 23 -11 4z"/>
<path d="M4895 4739 c-4 -6 -5 -12 -2 -15 2 -3 7 2 10 11 7 17 1 20 -8 4z"/>
<path d="M615 4731 c-3 -5 -2 -12 3 -15 5 -3 9 1 9 9 0 17 -3 19 -12 6z"/>
<path d="M685 4699 c-4 -6 -14 -8 -24 -4 -13 5 -14 4 -3 -6 10 -11 15 -10 29
4 10 9 14 17 11 17 -4 0 -10 -5 -13 -11z"/>
<path d="M4885 4700 c-3 -6 1 -7 9 -4 18 7 21 14 7 14 -6 0 -13 -4 -16 -10z"/>
<path d="M660 4660 c8 -5 20 -10 25 -10 6 0 3 5 -5 10 -8 5 -19 10 -25 10 -5
0 -3 -5 5 -10z"/>
<path d="M4911 4656 c-10 -12 -8 -17 7 -25 20 -11 32 -6 32 13 0 6 -5 4 -10
-4 -9 -13 -10 -13 -11 0 -1 8 -1 18 0 23 2 11 -5 8 -18 -7z"/>
<path d="M806 4442 c-3 -5 1 -9 9 -9 8 0 12 4 9 9 -3 4 -7 8 -9 8 -2 0 -6 -4
-9 -8z"/>
<path d="M5190 4281 c0 -6 4 -13 10 -16 6 -3 7 1 4 9 -7 18 -14 21 -14 7z"/>
<path d="M941 4254 c-1 -6 16 -23 36 -37 21 -15 32 -27 25 -27 -6 0 -12 -5
-12 -11 0 -8 5 -8 15 1 13 11 11 16 -13 39 -15 15 -30 25 -34 24 -3 -2 -9 3
-11 9 -3 8 -6 8 -6 2z"/>
<path d="M953 4207 c0 -8 6 -14 14 -14 9 0 10 4 2 14 -6 7 -12 13 -14 13 -1 0
-2 -6 -2 -13z"/>
<path d="M5190 4205 c0 -2 10 -10 23 -16 20 -11 21 -11 8 4 -13 16 -31 23 -31
12z"/>
<path d="M5208 4169 c6 -9 8 -20 4 -25 -4 -4 2 -2 13 6 30 21 32 24 14 17 -9
-3 -23 0 -30 6 -11 10 -11 9 -1 -4z"/>
<path d="M5265 4091 c2 -20 42 -34 42 -15 0 10 -7 12 -21 9 -20 -6 -20 -5 -2
9 18 14 18 15 -2 13 -11 0 -19 -7 -17 -16z"/>
<path d="M1035 4090 c3 -5 8 -10 11 -10 2 0 4 5 4 10 0 6 -5 10 -11 10 -5 0
-7 -4 -4 -10z"/>
<path d="M1120 3940 c-9 -6 -10 -10 -3 -10 6 0 15 5 18 10 8 12 4 12 -15 0z"/>
<path d="M1173 3919 c-2 -19 11 -26 21 -10 3 5 0 14 -7 19 -10 8 -13 6 -14 -9z"/>
<path d="M5429 3903 c-13 -16 -12 -17 4 -4 9 7 17 15 17 17 0 8 -8 3 -21 -13z"/>
<path d="M5466 3785 c-5 -15 11 -31 21 -21 4 3 0 6 -8 6 -12 0 -12 2 0 9 8 5
9 11 3 15 -5 3 -12 -1 -16 -9z"/>
<path d="M5574 3662 c4 -3 14 -7 22 -8 9 -1 13 0 10 4 -4 3 -14 7 -22 8 -9 1
-13 0 -10 -4z"/>
<path d="M1350 3601 c0 -5 7 -15 17 -22 15 -13 15 -12 4 9 -12 23 -21 28 -21
13z"/>
<path d="M1517 3339 c7 -7 15 -10 18 -7 3 3 -2 9 -12 12 -14 6 -15 5 -6 -5z"/>
<path d="M5820 3245 c-9 -11 -9 -15 -1 -15 7 0 9 -4 6 -10 -4 -6 1 -7 11 -3
11 4 13 8 6 11 -7 2 -12 8 -12 13 0 6 5 7 12 3 7 -4 8 -3 4 4 -9 15 -11 15
-26 -3z"/>
<path d="M5911 3143 c-5 -10 -12 -17 -15 -15 -3 1 -6 0 -6 -3 0 -3 0 -9 0 -13
0 -4 10 -8 23 -9 12 0 16 1 10 4 -7 3 -13 9 -13 14 0 6 4 8 8 5 4 -2 8 4 8 15
0 23 -2 24 -15 2z"/>
<path d="M1735 3050 c-4 -6 -10 -8 -14 -6 -4 3 -8 -1 -8 -9 0 -13 3 -13 17 0
9 8 20 12 25 8 4 -5 5 -2 1 5 -9 15 -13 15 -21 2z"/>
<path d="M1766 2942 c-3 -5 1 -9 9 -9 8 0 12 4 9 9 -3 4 -7 8 -9 8 -2 0 -6 -4
-9 -8z"/>
<path d="M6066 2898 c3 -4 9 -8 15 -8 5 0 9 4 9 8 0 5 -7 9 -15 9 -8 0 -12 -4
-9 -9z"/>
<path d="M1850 2816 c0 -2 8 -10 18 -17 15 -13 16 -12 3 4 -13 16 -21 21 -21
13z"/>
<path d="M1980 2650 c8 -5 20 -10 25 -10 6 0 3 5 -5 10 -8 5 -19 10 -25 10 -5
0 -3 -5 5 -10z"/>
<path d="M6225 2610 c-3 -6 1 -7 9 -4 18 7 21 14 7 14 -6 0 -13 -4 -16 -10z"/>
<path d="M6270 2551 c-7 -15 -6 -23 6 -35 19 -19 28 -21 17 -3 -13 21 -14 49
-1 41 7 -4 8 -3 4 4 -10 16 -14 15 -26 -7z"/>
<path d="M6301 2534 c-1 -6 5 -17 12 -23 10 -8 14 -7 14 4 0 8 -4 12 -8 9 -4
-2 -10 2 -12 8 -4 8 -6 9 -6 2z"/>
<path d="M2056 2478 c3 -5 10 -6 15 -3 13 9 11 12 -6 12 -8 0 -12 -4 -9 -9z"/>
<path d="M2093 2425 c0 -8 4 -12 9 -9 5 3 6 10 3 15 -9 13 -12 11 -12 -6z"/>
<path d="M2195 2319 c-4 -6 -5 -12 -2 -15 2 -3 7 2 10 11 7 17 1 20 -8 4z"/>
<path d="M6370 2305 l-25 -14 26 1 c14 1 26 8 26 15 0 7 -1 13 -1 13 -1 -1
-12 -7 -26 -15z"/>
<path d="M6306 2252 c-9 -11 -12 -23 -7 -31 6 -10 10 -9 15 4 3 9 11 13 17 9
7 -4 9 -3 5 4 -3 5 -1 12 6 14 8 3 6 6 -4 10 -9 4 -23 -1 -32 -10z m24 4 c0
-2 -8 -10 -17 -17 -16 -13 -17 -12 -4 4 13 16 21 21 21 13z"/>
<path d="M6236 2201 c-4 -6 -1 -11 6 -11 9 0 9 -3 -2 -10 -11 -8 -8 -9 14 -6
16 3 31 8 35 12 3 4 -2 4 -11 1 -11 -4 -21 0 -26 10 -6 11 -11 12 -16 4z"/>
<path d="M2308 2113 c7 -3 16 -2 19 1 4 3 -2 6 -13 5 -11 0 -14 -3 -6 -6z"/>
<path d="M6145 2101 c-3 -5 -2 -12 3 -15 5 -3 9 1 9 9 0 17 -3 19 -12 6z"/>
<path d="M6083 2044 c7 -13 -23 -32 -45 -28 -9 1 -19 -4 -22 -12 -6 -15 15
-15 26 1 5 6 8 3 8 -7 0 -9 4 -20 10 -23 6 -4 7 1 3 11 -4 11 2 23 17 34 17
13 20 19 10 25 -8 5 -11 4 -7 -1z"/>
<path d="M2375 2020 c-8 -13 5 -13 25 0 13 8 13 10 -2 10 -9 0 -20 -4 -23 -10z"/>
<path d="M2470 1889 c0 -5 5 -7 10 -4 6 3 10 8 10 11 0 2 -4 4 -10 4 -5 0 -10
-5 -10 -11z"/>
<path d="M2435 1841 c-3 -5 -2 -12 3 -15 5 -3 9 1 9 9 0 17 -3 19 -12 6z"/>
<path d="M5895 1840 c-3 -6 1 -7 9 -4 18 7 21 14 7 14 -6 0 -13 -4 -16 -10z"/>
<path d="M2460 1829 c0 -5 5 -7 10 -4 6 3 10 8 10 11 0 2 -4 4 -10 4 -5 0 -10
-5 -10 -11z"/>
<path d="M2330 1740 c-6 -12 -16 -18 -23 -14 -8 5 -8 2 1 -7 11 -12 14 -12 21
0 7 11 9 11 13 0 3 -9 6 -8 11 5 5 11 3 15 -5 10 -8 -5 -9 -2 -5 9 9 24 0 21
-13 -3z"/>
<path d="M5736 1714 c-8 -20 -8 -24 2 -24 4 0 8 9 9 20 2 24 -3 26 -11 4z"/>
<path d="M5705 1701 c-3 -5 -2 -12 3 -15 5 -3 9 1 9 9 0 17 -3 19 -12 6z"/>
<path d="M5640 1645 c-11 -13 -10 -14 5 -9 14 6 16 4 10 -6 -5 -8 -4 -11 3 -6
6 4 9 13 5 21 -7 19 -8 19 -23 0z"/>
<path d="M2013 1505 c0 -8 4 -12 9 -9 5 3 6 10 3 15 -9 13 -12 11 -12 -6z"/>
<path d="M5046 1111 c-3 -5 1 -11 9 -15 8 -3 15 -1 15 4 0 13 -18 22 -24 11z"/>
<path d="M1435 1040 c-3 -5 -1 -10 4 -10 6 0 11 5 11 10 0 6 -2 10 -4 10 -3 0
-8 -4 -11 -10z"/>
<path d="M4930 985 c-11 -13 -10 -14 4 -9 9 3 16 10 16 15 0 13 -6 11 -20 -6z"/>
<path d="M1233 885 c0 -8 4 -12 9 -9 5 3 6 10 3 15 -9 13 -12 11 -12 -6z"/>
<path d="M4767 829 c7 -7 15 -10 18 -7 3 3 -2 9 -12 12 -14 6 -15 5 -6 -5z"/>
<path d="M1182 806 c7 -8 17 -12 22 -9 4 3 2 9 -5 14 -22 13 -31 11 -17 -5z"/>
<path d="M1130 799 c0 -5 5 -7 10 -4 6 3 10 8 10 11 0 2 -4 4 -10 4 -5 0 -10
-5 -10 -11z"/>
<path d="M4670 755 c-11 -13 -10 -14 4 -9 9 3 16 10 16 15 0 13 -6 11 -20 -6z"/>
<path d="M4600 695 c0 -5 5 -17 10 -25 5 -8 10 -10 10 -5 0 6 -5 17 -10 25 -5
8 -10 11 -10 5z"/>
<path d="M3977 623 c3 -7 6 -13 8 -13 2 0 5 6 8 13 3 8 -1 14 -8 14 -7 0 -11
-6 -8 -14z"/>
<path d="M4217 623 c3 -7 6 -13 8 -13 2 0 5 6 8 13 3 8 -1 14 -8 14 -7 0 -11
-6 -8 -14z"/>
<path d="M4457 623 c3 -7 6 -13 8 -13 2 0 5 6 8 13 3 8 -1 14 -8 14 -7 0 -11
-6 -8 -14z"/>
<path d="M3244 567 c-4 -7 -4 -9 1 -5 4 4 14 3 22 -3 8 -7 13 -8 13 -1 0 15
-28 23 -36 9z"/>
<path d="M844 541 c9 -14 -20 -32 -40 -25 -16 5 -16 4 -4 -5 14 -10 7 -16 -13
-12 -5 1 -6 -3 -3 -8 4 -5 2 -12 -4 -16 -5 -3 -10 -1 -10 6 0 7 -3 10 -6 6 -3
-3 -3 -11 1 -17 5 -8 12 -7 24 4 10 9 20 14 23 11 3 -3 13 6 22 20 9 14 21 23
26 20 6 -3 7 1 4 9 -3 9 -10 16 -16 16 -5 0 -7 -4 -4 -9z"/>
<path d="M3161 491 c-7 -5 -9 -11 -5 -14 5 -3 15 1 22 9 14 16 5 18 -17 5z"/>
<path d="M469 253 c-1 -4 -1 -12 0 -17 1 -5 -6 -5 -16 -2 -13 5 -15 4 -7 -4
11 -11 44 -4 44 10 0 12 -20 23 -21 13z"/>
<path d="M405 179 c-4 -6 -5 -12 -2 -15 2 -3 7 2 10 11 7 17 1 20 -8 4z"/>
<path d="M2856 178 c3 -4 11 -5 19 -1 21 7 19 12 -4 10 -11 0 -18 -5 -15 -9z"/>
</g>
</svg>
