<svg id="Layer_1" height="512" width="512" xmlns="http://www.w3.org/2000/svg"><path clip-rule="evenodd" d="M256 415.921c55.078 0 100-44.922 100-100-5.115-132.464-194.905-132.428-200 .001 0 55.077 44.922 99.999 100 99.999z" fill="#b2f0fb" fill-rule="evenodd"/><g fill="#020288"><path d="M432.688 46.476c-6.149-1.925-12.91 3.176-12.74 9.617v91.484c-74.5 23.534-253.395 23.534-327.896 0V56.093a10 10 0 00-12.741-9.617C27.426 61.26 0 81.724 0 105.657v280.344c.001 23.932 27.426 44.396 79.312 59.18 92.775 27.673 260.603 27.673 353.377-.001 51.885-14.783 79.311-35.247 79.312-59.179V105.657C512 81.724 484.574 61.26 432.688 46.476zm7.26 23.164c72.232 25.82 66.349 48.59 0 72.002zm0 93.042c22.531-6.968 39.975-15.088 52.052-24.154v214.601c-12.077-9.065-29.52-17.186-52.052-24.154zM34.394 87.072c9.037-6.216 21.906-12.16 37.659-17.428v71.999c-42.58-14.978-70.031-32.964-37.659-54.571zm37.659 75.61v166.293C49.521 335.943 32.077 344.064 20 353.129V138.528c12.077 9.066 29.521 17.187 52.053 24.154zM256 446.094c-144.153.539-279.467-40.324-221.608-78.677 11.367-7.819 28.796-15.206 50.401-21.362a10 10 0 007.26-9.617V168.229c89.566 23.2 238.329 23.2 327.896 0v168.209a10 10 0 007.26 9.617c155.852 45.275.809 99.558-171.209 100.039z"/><path d="M300.819 296.16l-55.39-31.979c-14.794-10.304-35.921.886-35.682 18.955v65.589c-.004 3.979 1.071 7.942 3.107 11.458 3.981 7.025 11.761 11.444 19.808 11.405a22.67 22.67 0 0011.397-3.08l56.812-32.801c15.006-8.355 15.058-31.229-.052-39.547zm-8.942 21.18c-.264.458-.613.822-1.008 1.05l-56.822 32.806c-1.605.777-2.88.412-3.886-1.035-.271-.469-.414-.959-.414-1.426v-65.599c.111-2.914 3.341-3.672 5.329-1.838l55.761 32.193a2.823 2.823 0 011.04 3.849z"/></g></svg>