<?xml version="1.0" encoding="utf-8"?><svg xmlns="http://www.w3.org/2000/svg" xmlns:xlink="http://www.w3.org/1999/xlink"><symbol viewBox="0 0 512.002 512.002" id="information" xmlns="http://www.w3.org/2000/svg"><path d="M119.501 287.5c13 6 45.074 92.608 45.074 92.608 11.374 34.399 2.404 79.797-11.66 119.104-.697 1.948.758 3.993 2.826 3.993l13.289.977h152.722c1.424 0 2.654-1 2.938-2.396 6.151-30.155 16.101-71.945 62.252-65.69 21.879 2.965 43.38 6.569 53.764 4.869 14.8-2.422 29.552-8.927 33.88-26.509 2.807-11.404-1.309-17.867-4.328-23.263-1.627-2.908-.182-6.761 2.164-8.386 2.335-1.617 5.003-2.747 7.094-3.475 3.342-1.163 5.566-4.435 5.313-7.964-.214-2.991-1.684-6.606-6.159-10.113-.464-.363-.541-1.005-.157-1.452 1.341-1.562 4.698-5.207 10.366-9.727.069-.055.136-.109.202-.164 3.966-3.28 3.758-9.44-.351-12.541-6.474-4.887-21.232-17.989-2.272-23.819 12.293-3.781 18.021-9.757 18.042-18.906.017-7.844-4.975-12.346-11.519-17.383-11.231-8.647-20.62-17.706-28.102-31.025-1.873-3.333-2.143-7.384-.644-10.901 3.609-8.469 12.758-17.275 10.761-25.85-1.639-7.039-8.895-15.172-9.993-32.005-4.613-70.743-57.021-113.352-122.248-126.366-7.264-1.449-14.624-2.379-22.013-2.905l-5.461-.389L304.001 52l-77.5-10.5z"/><path d="M366.581 177.36c0-50.05-19.5-95.628-51.3-129.538l-88.78-6.322-107 246c9.592 4.427 25.16 52.735 32.664 77.761l-.004.009.007.001c2.664 8.886 4.313 14.839 4.313 14.839 11.38 34.4 8.09 80.77-5.97 120.08-.7 1.95.76 3.99 2.83 3.99l15.69.003c16.562-44.175 18.73-88.544 6.16-129.616-1.162-3.796 1.672-7.635 5.641-7.704 102.189-1.784 185.884-86.282 185.749-189.503z"/><path d="M346.58 177.357c0-93.634-75.905-169.539-169.539-169.539-48.42 0-92.099 20.298-122.992 52.849 0 0-5.399 7.01-8.356 10.695-23.296 29.034-33.457 65.874-33.457 105.995 0 93.634 71.132 163.005 164.766 163.005 50.769 0 95.205-16.43 126.277-51.787 2.17-2.47 6.004-6.28 8.545-8.928a48.642 48.642 0 002.593-2.912c20.233-27.924 32.163-62.258 32.163-99.378z"/><path d="M314.551 276.55c-30.8 42.62-80.92 70.35-137.51 70.35-93.63 0-169.54-75.91-169.54-169.54 0-45.47 17.9-86.75 47.03-117.19-20.15 27.89-32.03 62.15-32.03 99.19 0 93.63 75.91 169.54 169.54 169.54 48.17 0 91.65-20.09 122.51-52.35z"/><circle cx="177.001" cy="177" r="115"/><path d="M265.001 177c0-48.601-39.399-88-88-88-19.804 0-38.081 6.542-52.786 17.583 0 0-4.944 5.092-7.554 7.608C100.056 130.198 91.98 152.115 91.98 177c0 48.601 36.42 83.702 85.021 83.702 22.285 0 42.304-4.759 57.809-18.415 2.987-2.631 8.732-7.697 8.732-7.697 13.369-15.434 21.459-35.567 21.459-57.59z"/><path d="M243.541 234.59c-16.14 18.63-39.96 30.41-66.54 30.41-48.6 0-88-39.4-88-88 0-28.91 13.941-54.572 35.461-70.602-13.37 15.44-21.461 35.582-21.461 57.602 0 48.6 39.4 88 88 88 19.69 0 37.88-6.47 52.54-17.41z"/><circle cx="177.001" cy="132.5" r="13.5"/><path d="M190.707 224.738a1.779 1.779 0 01-.206-.822v-51.045h-27v51.045c0 .229-.047.437-.115.629 9.107-.557 18.214-.276 27.321.193z"/><g><path d="M488.875 320.318c5.709-1.922 23.084-7.77 23.125-26.063.027-12.221-8.664-18.943-14.415-23.392-10.8-8.354-17.818-15.668-23.467-24.457-2.696-4.194-2.729-9.684-.083-13.986.433-.703.875-1.407 1.318-2.112 4.235-6.74 9.035-14.379 6.986-23.217-.723-3.121-2.107-6.059-3.572-9.17-2.62-5.563-5.59-11.87-6.23-21.737a154.857 154.857 0 00-1.686-14.887 7.5 7.5 0 00-14.804 2.42 139.872 139.872 0 011.521 13.439c.825 12.709 4.757 21.06 7.628 27.156 1.163 2.47 2.167 4.603 2.53 6.167.639 2.756-2.397 7.587-5.075 11.85-.469.746-.937 1.491-1.394 2.234-5.648 9.183-5.554 20.941.241 29.955 6.627 10.311 14.674 18.748 26.907 28.21 6.754 5.225 8.601 7.696 8.593 11.495-.006 2.82-.017 7.54-12.911 11.88-10.168 3.423-12.697 10.111-13.3 13.793-1.671 10.215 6.739 19.63 11.419 23.182.34.258.762.691.844 1.292.101.746-.313 1.791-1.136 2.866-3.073 4.018-6.615 5.05-7.21 5.2-3.169.426-5.562 2.796-6.189 5.941-.633 3.169 1.002 6.363 3.811 7.962 1.404.799 4.69 2.829 4.882 4.417.08.663-.528 1.576-1.132 1.761-2.414.737-3.769 1.528-7.897 4.034-5.792 4.03-7.779 12.203-4.43 18.22 2.471 4.437 5.549 9.287 3.591 17.911-2.859 11.672-11.683 18.34-27.769 20.985-7.622 1.252-24.726-1.161-41.267-3.495a2070.79 2070.79 0 00-10.197-1.422c-23.791-3.241-42 4.75-54.114 23.749-9.833 15.419-13.921 35.708-16.906 50.521a7.499 7.499 0 007.36 8.982 7.501 7.501 0 007.344-6.02c7.487-37.149 16.735-67.488 54.293-62.371 3.397.462 6.786.94 10.125 1.412 19.273 2.72 35.916 5.069 45.797 3.443 22.132-3.64 35.558-14.479 39.904-32.217 3.332-13.603-1.328-22.133-4.51-27.804.988-.547 1.651-.883 4.735-2.207 6.739-2.976 10.836-10.083 9.965-17.284a16.615 16.615 0 00-2.943-7.691 31.233 31.233 0 004.672-4.914c4.198-5.489 4.539-10.637 4.086-13.989-.602-4.449-2.96-8.438-6.642-11.232-3.354-2.544-5.971-7.046-5.683-8.81.063-.366 1.007-1.233 3.285-2zM327.666 54.937c56.39 7.389 99.72 35.564 118.882 77.303a7.503 7.503 0 006.821 4.373 7.5 7.5 0 006.812-10.631c-21.361-46.528-68.95-77.844-130.565-85.917a7.495 7.495 0 00-8.411 6.462 7.499 7.499 0 006.461 8.41zM154.597 372.873a7.5 7.5 0 00-4.779 9.469c10.726 32.591 7.849 79.497-7.329 119.498a7.5 7.5 0 0014.025 5.322c16.573-43.679 19.467-93.304 7.552-129.509a7.5 7.5 0 00-9.469-4.78zM177.001 0c-97.598 0-177 79.402-177 177 0 28.038 6.367 54.856 18.924 79.711a7.5 7.5 0 0013.388-6.764C20.826 227.209 15.001 202.666 15.001 177c0-89.327 72.673-162 162-162s162 72.673 162 162-72.673 162-162 162c-49.655 0-95.888-22.313-126.842-61.217a7.5 7.5 0 00-11.739 9.339C72.238 329.624 122.749 354 177.001 354c97.598 0 177-79.402 177-177s-79.402-177-177-177z"/><path d="M256.517 270.188c27.317-23.33 42.984-57.295 42.984-93.188 0-67.547-54.953-122.5-122.5-122.5s-122.5 54.953-122.5 122.5 54.953 122.5 122.5 122.5c16.535 0 32.578-3.24 47.685-9.629a7.5 7.5 0 10-5.844-13.816c-13.248 5.604-27.325 8.445-41.841 8.445-59.276 0-107.5-48.224-107.5-107.5s48.224-107.5 107.5-107.5 107.5 48.224 107.5 107.5c0 31.497-13.75 61.305-37.725 81.781a7.5 7.5 0 009.741 11.407z"/><path d="M136.566 107.375a7.5 7.5 0 00-7.546-12.964C99.709 111.474 81.501 143.12 81.501 177c0 52.659 42.841 95.5 95.5 95.5s95.5-42.841 95.5-95.5-42.841-95.5-95.5-95.5c-4.052 0-8.131.257-12.125.763a7.5 7.5 0 001.887 14.881A81.713 81.713 0 01177 96.5c44.388 0 80.5 36.112 80.5 80.5s-36.112 80.5-80.5 80.5-80.5-36.112-80.5-80.5c.001-28.56 15.353-55.239 40.066-69.625z"/><path d="M198.001 132.5c0-11.58-9.42-21-21-21s-21 9.42-21 21 9.42 21 21 21 21-9.42 21-21zm-27 0c0-3.309 2.691-6 6-6s6 2.691 6 6-2.691 6-6 6-6-2.691-6-6zm-20.5 85a7.5 7.5 0 000 15h53a7.5 7.5 0 000-15h-5.5V172a7.5 7.5 0 00-7.5-7.5h-40a7.5 7.5 0 000 15h5.5v38zm20.5-38h12v38h-12z"/></g></symbol><symbol viewBox="0 0 512 512" id="virtual-reality" xmlns="http://www.w3.org/2000/svg"><path clip-rule="evenodd" d="M256 415.921c55.078 0 100-44.922 100-100-5.115-132.464-194.905-132.428-200 .001 0 55.077 44.922 99.999 100 99.999z" fill-rule="evenodd"/><path d="M432.688 46.476c-6.149-1.925-12.91 3.176-12.74 9.617v91.484c-74.5 23.534-253.395 23.534-327.896 0V56.093a10 10 0 00-12.741-9.617C27.426 61.26 0 81.724 0 105.657v280.344c.001 23.932 27.426 44.396 79.312 59.18 92.775 27.673 260.603 27.673 353.377-.001 51.885-14.783 79.311-35.247 79.312-59.179V105.657C512 81.724 484.574 61.26 432.688 46.476zm7.26 23.164c72.232 25.82 66.349 48.59 0 72.002zm0 93.042c22.531-6.968 39.975-15.088 52.052-24.154v214.601c-12.077-9.065-29.52-17.186-52.052-24.154zM34.394 87.072c9.037-6.216 21.906-12.16 37.659-17.428v71.999c-42.58-14.978-70.031-32.964-37.659-54.571zm37.659 75.61v166.293C49.521 335.943 32.077 344.064 20 353.129V138.528c12.077 9.066 29.521 17.187 52.053 24.154zM256 446.094c-144.153.539-279.467-40.324-221.608-78.677 11.367-7.819 28.796-15.206 50.401-21.362a10 10 0 007.26-9.617V168.229c89.566 23.2 238.329 23.2 327.896 0v168.209a10 10 0 007.26 9.617c155.852 45.275.809 99.558-171.209 100.039z"/><path d="M300.819 296.16l-55.39-31.979c-14.794-10.304-35.921.886-35.682 18.955v65.589c-.004 3.979 1.071 7.942 3.107 11.458 3.981 7.025 11.761 11.444 19.808 11.405a22.67 22.67 0 0011.397-3.08l56.812-32.801c15.006-8.355 15.058-31.229-.052-39.547zm-8.942 21.18c-.264.458-.613.822-1.008 1.05l-56.822 32.806c-1.605.777-2.88.412-3.886-1.035-.271-.469-.414-.959-.414-1.426v-65.599c.111-2.914 3.341-3.672 5.329-1.838l55.761 32.193a2.823 2.823 0 011.04 3.849z"/></symbol></svg>